<?xml version="1.0" encoding="us-ascii" standalone="no"?><svg xmlns="http://www.w3.org/2000/svg" xmlns:xlink="http://www.w3.org/1999/xlink" contentStyleType="text/css" height="1023px" preserveAspectRatio="none" style="width:1379px;height:1023px;background:#FFFFFF;" version="1.1" viewBox="0 0 1379 1023" width="1379px" zoomAndPan="magnify"><defs/><g><!--class IAlgorithm--><g id="elem_IAlgorithm"><rect codeLine="7" fill="#F1F1F1" height="97.4648" id="IAlgorithm" rx="2.5" ry="2.5" style="stroke:#181818;stroke-width:0.5;" width="262" x="508" y="404.37"/><ellipse cx="598.25" cy="420.37" fill="#B4A7E5" rx="11" ry="11" style="stroke:#181818;stroke-width:1.0;"/><path d="M594.6777,416.6351 L594.6777,414.4769 L602.0571,414.4769 L602.0571,416.6351 L599.5918,416.6351 L599.5918,424.7118 L602.0571,424.7118 L602.0571,426.87 L594.6777,426.87 L594.6777,424.7118 L597.1431,424.7118 L597.1431,416.6351 Z " fill="#000000"/><text fill="#000000" font-family="sans-serif" font-size="14" font-style="italic" lengthAdjust="spacing" textLength="73" x="618.75" y="425.661">IAlgorithm</text><line style="stroke:#181818;stroke-width:0.5;" x1="509" x2="769" y1="436.37" y2="436.37"/><text fill="#000000" font-family="sans-serif" font-size="14" lengthAdjust="spacing" textLength="148" x="514" y="453.9052">evaluator : IEvaluator,</text><line style="stroke:#181818;stroke-width:0.5;" x1="509" x2="769" y1="460.8583" y2="460.8583"/><text fill="#000000" font-family="sans-serif" font-size="14" lengthAdjust="spacing" textLength="164" x="514" y="478.3934">+run(ctx : AlgoContext,</text><text fill="#000000" font-family="sans-serif" font-size="14" lengthAdjust="spacing" textLength="250" x="514" y="494.8817">costModel : ICostModel) : AlgoResult</text></g><!--class IEvaluator--><g id="elem_IEvaluator"><rect codeLine="13" fill="#F1F1F1" height="64.4883" id="IEvaluator" rx="2.5" ry="2.5" style="stroke:#181818;stroke-width:0.5;" width="291" x="432.5" y="678.08"/><ellipse cx="539.75" cy="694.08" fill="#B4A7E5" rx="11" ry="11" style="stroke:#181818;stroke-width:1.0;"/><path d="M536.1777,690.3451 L536.1777,688.1869 L543.5571,688.1869 L543.5571,690.3451 L541.0918,690.3451 L541.0918,698.4218 L543.5571,698.4218 L543.5571,700.58 L536.1777,700.58 L536.1777,698.4218 L538.6431,698.4218 L538.6431,690.3451 Z " fill="#000000"/><text fill="#000000" font-family="sans-serif" font-size="14" font-style="italic" lengthAdjust="spacing" textLength="68" x="560.25" y="699.371">IEvaluator</text><line style="stroke:#181818;stroke-width:0.5;" x1="433.5" x2="722.5" y1="710.08" y2="710.08"/><line style="stroke:#181818;stroke-width:0.5;" x1="433.5" x2="722.5" y1="718.08" y2="718.08"/><text fill="#000000" font-family="sans-serif" font-size="14" lengthAdjust="spacing" textLength="279" x="438.5" y="735.6152">+evaluate(seq : OptSequence) : IRMetrics</text></g><!--class ICostModel--><g id="elem_ICostModel"><rect codeLine="17" fill="#F1F1F1" height="64.4883" id="ICostModel" rx="2.5" ry="2.5" style="stroke:#181818;stroke-width:0.5;" width="254" x="1113" y="678.08"/><ellipse cx="1197.25" cy="694.08" fill="#B4A7E5" rx="11" ry="11" style="stroke:#181818;stroke-width:1.0;"/><path d="M1193.6777,690.3451 L1193.6777,688.1869 L1201.0571,688.1869 L1201.0571,690.3451 L1198.5918,690.3451 L1198.5918,698.4218 L1201.0571,698.4218 L1201.0571,700.58 L1193.6777,700.58 L1193.6777,698.4218 L1196.1431,698.4218 L1196.1431,690.3451 Z " fill="#000000"/><text fill="#000000" font-family="sans-serif" font-size="14" font-style="italic" lengthAdjust="spacing" textLength="77" x="1217.75" y="699.371">ICostModel</text><line style="stroke:#181818;stroke-width:0.5;" x1="1114" x2="1366" y1="710.08" y2="710.08"/><line style="stroke:#181818;stroke-width:0.5;" x1="1114" x2="1366" y1="718.08" y2="718.08"/><text fill="#000000" font-family="sans-serif" font-size="14" lengthAdjust="spacing" textLength="242" x="1119" y="735.6152">+score(metrics : IRMetrics) : double</text></g><!--class AlgoContext--><g id="elem_AlgoContext"><rect codeLine="25" fill="#F1F1F1" height="80.9766" id="AlgoContext" rx="2.5" ry="2.5" style="stroke:#181818;stroke-width:0.5;" width="148" x="7" y="48.22"/><ellipse cx="35.05" cy="64.22" fill="#ADD1B2" rx="11" ry="11" style="stroke:#181818;stroke-width:1.0;"/><path d="M37.5231,70.3631 Q36.9421,70.6619 36.3029,70.8113 Q35.6638,70.9607 34.9582,70.9607 Q32.4514,70.9607 31.1315,69.3089 Q29.8117,67.657 29.8117,64.5359 Q29.8117,61.4065 31.1315,59.7547 Q32.4514,58.1028 34.9582,58.1028 Q35.6638,58.1028 36.3112,58.2522 Q36.9587,58.4016 37.5231,58.7005 L37.5231,61.4231 Q36.8923,60.8421 36.2988,60.5723 Q35.7053,60.3025 35.0744,60.3025 Q33.7297,60.3025 33.0449,61.3692 Q32.3601,62.4358 32.3601,64.5359 Q32.3601,66.6277 33.0449,67.6944 Q33.7297,68.761 35.0744,68.761 Q35.7053,68.761 36.2988,68.4912 Q36.8923,68.2215 37.5231,67.6404 Z " fill="#000000"/><text fill="#000000" font-family="sans-serif" font-size="14" lengthAdjust="spacing" textLength="87" x="51.95" y="69.511">AlgoContext</text><line style="stroke:#181818;stroke-width:0.5;" x1="8" x2="154" y1="80.22" y2="80.22"/><text fill="#000000" font-family="sans-serif" font-size="14" lengthAdjust="spacing" textLength="136" x="13" y="97.7552">+maxIterations : int</text><text fill="#000000" font-family="sans-serif" font-size="14" lengthAdjust="spacing" textLength="108" x="13" y="114.2434">+verbose : bool</text><line style="stroke:#181818;stroke-width:0.5;" x1="8" x2="154" y1="121.1966" y2="121.1966"/></g><!--class AlgoResult--><g id="elem_AlgoResult"><rect codeLine="30" fill="#F1F1F1" height="80.9766" id="AlgoResult" rx="2.5" ry="2.5" style="stroke:#181818;stroke-width:0.5;" width="221" x="190.5" y="48.22"/><ellipse cx="259.75" cy="64.22" fill="#ADD1B2" rx="11" ry="11" style="stroke:#181818;stroke-width:1.0;"/><path d="M262.2231,70.3631 Q261.6421,70.6619 261.0029,70.8113 Q260.3638,70.9607 259.6582,70.9607 Q257.1514,70.9607 255.8315,69.3089 Q254.5117,67.657 254.5117,64.5359 Q254.5117,61.4065 255.8315,59.7547 Q257.1514,58.1028 259.6582,58.1028 Q260.3638,58.1028 261.0112,58.2522 Q261.6587,58.4016 262.2231,58.7005 L262.2231,61.4231 Q261.5923,60.8421 260.9988,60.5723 Q260.4053,60.3025 259.7744,60.3025 Q258.4297,60.3025 257.7449,61.3692 Q257.0601,62.4358 257.0601,64.5359 Q257.0601,66.6277 257.7449,67.6944 Q258.4297,68.761 259.7744,68.761 Q260.4053,68.761 260.9988,68.4912 Q261.5923,68.2215 262.2231,67.6404 Z " fill="#000000"/><text fill="#000000" font-family="sans-serif" font-size="14" lengthAdjust="spacing" textLength="74" x="280.25" y="69.511">AlgoResult</text><line style="stroke:#181818;stroke-width:0.5;" x1="191.5" x2="410.5" y1="80.22" y2="80.22"/><text fill="#000000" font-family="sans-serif" font-size="14" lengthAdjust="spacing" textLength="209" x="196.5" y="97.7552">+bestSequence : OptSequence</text><text fill="#000000" font-family="sans-serif" font-size="14" lengthAdjust="spacing" textLength="138" x="196.5" y="114.2434">+bestScore : double</text><line style="stroke:#181818;stroke-width:0.5;" x1="191.5" x2="410.5" y1="121.1966" y2="121.1966"/></g><!--class IRMetrics--><g id="elem_IRMetrics"><rect codeLine="35" fill="#F1F1F1" height="97.4648" id="IRMetrics" rx="2.5" ry="2.5" style="stroke:#181818;stroke-width:0.5;" width="137" x="12.5" y="238.66"/><ellipse cx="46.85" cy="254.66" fill="#ADD1B2" rx="11" ry="11" style="stroke:#181818;stroke-width:1.0;"/><path d="M49.3231,260.8031 Q48.7421,261.1019 48.1029,261.2513 Q47.4638,261.4007 46.7582,261.4007 Q44.2514,261.4007 42.9315,259.7489 Q41.6117,258.097 41.6117,254.9759 Q41.6117,251.8465 42.9315,250.1947 Q44.2514,248.5428 46.7582,248.5428 Q47.4638,248.5428 48.1112,248.6922 Q48.7587,248.8416 49.3231,249.1405 L49.3231,251.8631 Q48.6923,251.2821 48.0988,251.0123 Q47.5053,250.7425 46.8744,250.7425 Q45.5297,250.7425 44.8449,251.8092 Q44.1601,252.8758 44.1601,254.9759 Q44.1601,257.0677 44.8449,258.1344 Q45.5297,259.201 46.8744,259.201 Q47.5053,259.201 48.0988,258.9312 Q48.6923,258.6615 49.3231,258.0804 Z " fill="#000000"/><text fill="#000000" font-family="sans-serif" font-size="14" lengthAdjust="spacing" textLength="62" x="65.15" y="259.951">IRMetrics</text><line style="stroke:#181818;stroke-width:0.5;" x1="13.5" x2="148.5" y1="270.66" y2="270.66"/><text fill="#000000" font-family="sans-serif" font-size="14" lengthAdjust="spacing" textLength="122" x="18.5" y="288.1952">+instructions : int</text><text fill="#000000" font-family="sans-serif" font-size="14" lengthAdjust="spacing" textLength="124" x="18.5" y="304.6834">+memoryOps : int</text><text fill="#000000" font-family="sans-serif" font-size="14" lengthAdjust="spacing" textLength="125" x="18.5" y="321.1717">+runtime : double</text><line style="stroke:#181818;stroke-width:0.5;" x1="13.5" x2="148.5" y1="328.1248" y2="328.1248"/></g><!--class OptSequence--><g id="elem_OptSequence"><rect codeLine="41" fill="#F1F1F1" height="48" id="OptSequence" rx="2.5" ry="2.5" style="stroke:#181818;stroke-width:0.5;" width="123" x="184.5" y="263.4"/><ellipse cx="199.5" cy="279.4" fill="#ADD1B2" rx="11" ry="11" style="stroke:#181818;stroke-width:1.0;"/><path d="M201.9731,285.5431 Q201.3921,285.8419 200.7529,285.9913 Q200.1138,286.1407 199.4082,286.1407 Q196.9014,286.1407 195.5815,284.4889 Q194.2617,282.837 194.2617,279.7159 Q194.2617,276.5865 195.5815,274.9347 Q196.9014,273.2828 199.4082,273.2828 Q200.1138,273.2828 200.7612,273.4322 Q201.4087,273.5816 201.9731,273.8805 L201.9731,276.6031 Q201.3423,276.0221 200.7488,275.7523 Q200.1553,275.4825 199.5244,275.4825 Q198.1797,275.4825 197.4949,276.5492 Q196.8101,277.6158 196.8101,279.7159 Q196.8101,281.8077 197.4949,282.8744 Q198.1797,283.941 199.5244,283.941 Q200.1553,283.941 200.7488,283.6712 Q201.3423,283.4015 201.9731,282.8204 Z " fill="#000000"/><text fill="#000000" font-family="sans-serif" font-size="14" lengthAdjust="spacing" textLength="91" x="213.5" y="284.691">OptSequence</text><line style="stroke:#181818;stroke-width:0.5;" x1="185.5" x2="306.5" y1="295.4" y2="295.4"/><line style="stroke:#181818;stroke-width:0.5;" x1="185.5" x2="306.5" y1="303.4" y2="303.4"/></g><!--class PhaseOrderingSolver--><g id="elem_PhaseOrderingSolver"><rect codeLine="47" fill="#F1F1F1" height="113.9531" id="PhaseOrderingSolver" rx="2.5" ry="2.5" style="stroke:#181818;stroke-width:0.5;" width="179" x="365.5" y="230.42"/><ellipse cx="381.85" cy="246.42" fill="#ADD1B2" rx="11" ry="11" style="stroke:#181818;stroke-width:1.0;"/><path d="M384.3231,252.5631 Q383.7421,252.8619 383.1029,253.0113 Q382.4638,253.1607 381.7582,253.1607 Q379.2514,253.1607 377.9315,251.5089 Q376.6117,249.857 376.6117,246.7359 Q376.6117,243.6065 377.9315,241.9547 Q379.2514,240.3028 381.7582,240.3028 Q382.4638,240.3028 383.1112,240.4522 Q383.7587,240.6016 384.3231,240.9005 L384.3231,243.6231 Q383.6923,243.0421 383.0988,242.7723 Q382.5053,242.5025 381.8744,242.5025 Q380.5297,242.5025 379.8449,243.5692 Q379.1601,244.6358 379.1601,246.7359 Q379.1601,248.8277 379.8449,249.8944 Q380.5297,250.961 381.8744,250.961 Q382.5053,250.961 383.0988,250.6912 Q383.6923,250.4215 384.3231,249.8404 Z " fill="#000000"/><text fill="#000000" font-family="sans-serif" font-size="14" lengthAdjust="spacing" textLength="144" x="396.15" y="251.711">PhaseOrderingSolver</text><line style="stroke:#181818;stroke-width:0.5;" x1="366.5" x2="543.5" y1="262.42" y2="262.42"/><text fill="#000000" font-family="sans-serif" font-size="14" lengthAdjust="spacing" textLength="160" x="371.5" y="279.9552">-algorithm : IAlgorithm</text><text fill="#000000" font-family="sans-serif" font-size="14" lengthAdjust="spacing" textLength="152" x="371.5" y="296.4434">-evaluator : IEvaluator</text><text fill="#000000" font-family="sans-serif" font-size="14" lengthAdjust="spacing" textLength="167" x="371.5" y="312.9317">-costModel : ICostModel</text><line style="stroke:#181818;stroke-width:0.5;" x1="366.5" x2="543.5" y1="319.8848" y2="319.8848"/><text fill="#000000" font-family="sans-serif" font-size="14" lengthAdjust="spacing" textLength="142" x="371.5" y="337.42">+solve() : AlgoResult</text></g><!--class RandomSearch--><g id="elem_RandomSearch"><rect codeLine="63" fill="#F1F1F1" height="48" id="RandomSearch" rx="2.5" ry="2.5" style="stroke:#181818;stroke-width:0.5;" width="135" x="840.5" y="561.84"/><ellipse cx="855.5" cy="577.84" fill="#ADD1B2" rx="11" ry="11" style="stroke:#181818;stroke-width:1.0;"/><path d="M857.9731,583.9831 Q857.3921,584.2819 856.7529,584.4313 Q856.1138,584.5807 855.4082,584.5807 Q852.9014,584.5807 851.5815,582.9289 Q850.2617,581.277 850.2617,578.1559 Q850.2617,575.0265 851.5815,573.3747 Q852.9014,571.7228 855.4082,571.7228 Q856.1138,571.7228 856.7612,571.8722 Q857.4087,572.0216 857.9731,572.3205 L857.9731,575.0431 Q857.3423,574.4621 856.7488,574.1923 Q856.1553,573.9225 855.5244,573.9225 Q854.1797,573.9225 853.4949,574.9892 Q852.8101,576.0558 852.8101,578.1559 Q852.8101,580.2477 853.4949,581.3144 Q854.1797,582.381 855.5244,582.381 Q856.1553,582.381 856.7488,582.1112 Q857.3423,581.8415 857.9731,581.2604 Z " fill="#000000"/><text fill="#000000" font-family="sans-serif" font-size="14" lengthAdjust="spacing" textLength="103" x="869.5" y="583.131">RandomSearch</text><line style="stroke:#181818;stroke-width:0.5;" x1="841.5" x2="974.5" y1="593.84" y2="593.84"/><line style="stroke:#181818;stroke-width:0.5;" x1="841.5" x2="974.5" y1="601.84" y2="601.84"/></g><!--class HillClimbing--><g id="elem_HillClimbing"><rect codeLine="64" fill="#F1F1F1" height="48" id="HillClimbing" rx="2.5" ry="2.5" style="stroke:#181818;stroke-width:0.5;" width="116" x="1010" y="561.84"/><ellipse cx="1025" cy="577.84" fill="#ADD1B2" rx="11" ry="11" style="stroke:#181818;stroke-width:1.0;"/><path d="M1027.4731,583.9831 Q1026.8921,584.2819 1026.2529,584.4313 Q1025.6138,584.5807 1024.9082,584.5807 Q1022.4014,584.5807 1021.0815,582.9289 Q1019.7617,581.277 1019.7617,578.1559 Q1019.7617,575.0265 1021.0815,573.3747 Q1022.4014,571.7228 1024.9082,571.7228 Q1025.6138,571.7228 1026.2612,571.8722 Q1026.9087,572.0216 1027.4731,572.3205 L1027.4731,575.0431 Q1026.8423,574.4621 1026.2488,574.1923 Q1025.6553,573.9225 1025.0244,573.9225 Q1023.6797,573.9225 1022.9949,574.9892 Q1022.3101,576.0558 1022.3101,578.1559 Q1022.3101,580.2477 1022.9949,581.3144 Q1023.6797,582.381 1025.0244,582.381 Q1025.6553,582.381 1026.2488,582.1112 Q1026.8423,581.8415 1027.4731,581.2604 Z " fill="#000000"/><text fill="#000000" font-family="sans-serif" font-size="14" lengthAdjust="spacing" textLength="84" x="1039" y="583.131">HillClimbing</text><line style="stroke:#181818;stroke-width:0.5;" x1="1011" x2="1125" y1="593.84" y2="593.84"/><line style="stroke:#181818;stroke-width:0.5;" x1="1011" x2="1125" y1="601.84" y2="601.84"/></g><!--class LLVMEvaluator--><g id="elem_LLVMEvaluator"><rect codeLine="78" fill="#F1F1F1" height="80.9766" id="LLVMEvaluator" rx="2.5" ry="2.5" style="stroke:#181818;stroke-width:0.5;" width="163" x="496.5" y="810.82"/><ellipse cx="525.9" cy="826.82" fill="#ADD1B2" rx="11" ry="11" style="stroke:#181818;stroke-width:1.0;"/><path d="M528.3731,832.9631 Q527.7921,833.2619 527.1529,833.4113 Q526.5138,833.5607 525.8082,833.5607 Q523.3014,833.5607 521.9815,831.9089 Q520.6617,830.257 520.6617,827.1359 Q520.6617,824.0065 521.9815,822.3547 Q523.3014,820.7028 525.8082,820.7028 Q526.5138,820.7028 527.1612,820.8522 Q527.8087,821.0016 528.3731,821.3005 L528.3731,824.0231 Q527.7423,823.4421 527.1488,823.1723 Q526.5553,822.9025 525.9244,822.9025 Q524.5797,822.9025 523.8949,823.9692 Q523.2101,825.0358 523.2101,827.1359 Q523.2101,829.2277 523.8949,830.2944 Q524.5797,831.361 525.9244,831.361 Q526.5553,831.361 527.1488,831.0912 Q527.7423,830.8215 528.3731,830.2404 Z " fill="#000000"/><text fill="#000000" font-family="sans-serif" font-size="14" lengthAdjust="spacing" textLength="99" x="543.1" y="832.111">LLVMEvaluator</text><line style="stroke:#181818;stroke-width:0.5;" x1="497.5" x2="658.5" y1="842.82" y2="842.82"/><text fill="#000000" font-family="sans-serif" font-size="14" lengthAdjust="spacing" textLength="131" x="502.5" y="860.3552">-llvm : LLVMFacade</text><text fill="#000000" font-family="sans-serif" font-size="14" lengthAdjust="spacing" textLength="151" x="502.5" y="876.8434">-analyzer : IRAnalyzer</text><line style="stroke:#181818;stroke-width:0.5;" x1="497.5" x2="658.5" y1="883.7966" y2="883.7966"/></g><!--class LLVMFacade--><g id="elem_LLVMFacade"><rect codeLine="88" fill="#F1F1F1" height="64.4883" id="LLVMFacade" rx="2.5" ry="2.5" style="stroke:#181818;stroke-width:0.5;" width="294" x="285" y="951.79"/><ellipse cx="386.25" cy="967.79" fill="#ADD1B2" rx="11" ry="11" style="stroke:#181818;stroke-width:1.0;"/><path d="M388.7231,973.9331 Q388.1421,974.2319 387.5029,974.3813 Q386.8638,974.5307 386.1582,974.5307 Q383.6514,974.5307 382.3315,972.8789 Q381.0117,971.227 381.0117,968.1059 Q381.0117,964.9765 382.3315,963.3247 Q383.6514,961.6728 386.1582,961.6728 Q386.8638,961.6728 387.5112,961.8222 Q388.1587,961.9716 388.7231,962.2705 L388.7231,964.9931 Q388.0923,964.4121 387.4988,964.1423 Q386.9053,963.8725 386.2744,963.8725 Q384.9297,963.8725 384.2449,964.9392 Q383.5601,966.0058 383.5601,968.1059 Q383.5601,970.1977 384.2449,971.2644 Q384.9297,972.331 386.2744,972.331 Q386.9053,972.331 387.4988,972.0612 Q388.0923,971.7915 388.7231,971.2104 Z " fill="#000000"/><text fill="#000000" font-family="sans-serif" font-size="14" lengthAdjust="spacing" textLength="83" x="406.75" y="973.081">LLVMFacade</text><line style="stroke:#181818;stroke-width:0.5;" x1="286" x2="578" y1="983.79" y2="983.79"/><line style="stroke:#181818;stroke-width:0.5;" x1="286" x2="578" y1="991.79" y2="991.79"/><text fill="#000000" font-family="sans-serif" font-size="14" lengthAdjust="spacing" textLength="282" x="291" y="1009.3252">+applyPasses(seq : OptSequence) : string</text></g><!--class IRAnalyzer--><g id="elem_IRAnalyzer"><rect codeLine="92" fill="#F1F1F1" height="64.4883" id="IRAnalyzer" rx="2.5" ry="2.5" style="stroke:#181818;stroke-width:0.5;" width="221" x="613.5" y="951.79"/><ellipse cx="683.25" cy="967.79" fill="#ADD1B2" rx="11" ry="11" style="stroke:#181818;stroke-width:1.0;"/><path d="M685.7231,973.9331 Q685.1421,974.2319 684.5029,974.3813 Q683.8638,974.5307 683.1582,974.5307 Q680.6514,974.5307 679.3315,972.8789 Q678.0117,971.227 678.0117,968.1059 Q678.0117,964.9765 679.3315,963.3247 Q680.6514,961.6728 683.1582,961.6728 Q683.8638,961.6728 684.5112,961.8222 Q685.1587,961.9716 685.7231,962.2705 L685.7231,964.9931 Q685.0923,964.4121 684.4988,964.1423 Q683.9053,963.8725 683.2744,963.8725 Q681.9297,963.8725 681.2449,964.9392 Q680.5601,966.0058 680.5601,968.1059 Q680.5601,970.1977 681.2449,971.2644 Q681.9297,972.331 683.2744,972.331 Q683.9053,972.331 684.4988,972.0612 Q685.0923,971.7915 685.7231,971.2104 Z " fill="#000000"/><text fill="#000000" font-family="sans-serif" font-size="14" lengthAdjust="spacing" textLength="73" x="703.75" y="973.081">IRAnalyzer</text><line style="stroke:#181818;stroke-width:0.5;" x1="614.5" x2="833.5" y1="983.79" y2="983.79"/><line style="stroke:#181818;stroke-width:0.5;" x1="614.5" x2="833.5" y1="991.79" y2="991.79"/><text fill="#000000" font-family="sans-serif" font-size="14" lengthAdjust="spacing" textLength="209" x="619.5" y="1009.3252">+analyze(ir : string) : IRMetrics</text></g><!--class WeightedCost--><g id="elem_WeightedCost"><rect codeLine="100" fill="#F1F1F1" height="48" id="WeightedCost" rx="2.5" ry="2.5" style="stroke:#181818;stroke-width:0.5;" width="127" x="1176.5" y="827.3"/><ellipse cx="1191.5" cy="843.3" fill="#ADD1B2" rx="11" ry="11" style="stroke:#181818;stroke-width:1.0;"/><path d="M1193.9731,849.4431 Q1193.3921,849.7419 1192.7529,849.8913 Q1192.1138,850.0407 1191.4082,850.0407 Q1188.9014,850.0407 1187.5815,848.3889 Q1186.2617,846.737 1186.2617,843.6159 Q1186.2617,840.4865 1187.5815,838.8347 Q1188.9014,837.1828 1191.4082,837.1828 Q1192.1138,837.1828 1192.7612,837.3322 Q1193.4087,837.4816 1193.9731,837.7805 L1193.9731,840.5031 Q1193.3423,839.9221 1192.7488,839.6523 Q1192.1553,839.3825 1191.5244,839.3825 Q1190.1797,839.3825 1189.4949,840.4492 Q1188.8101,841.5158 1188.8101,843.6159 Q1188.8101,845.7077 1189.4949,846.7744 Q1190.1797,847.841 1191.5244,847.841 Q1192.1553,847.841 1192.7488,847.5712 Q1193.3423,847.3015 1193.9731,846.7204 Z " fill="#000000"/><text fill="#000000" font-family="sans-serif" font-size="14" lengthAdjust="spacing" textLength="95" x="1205.5" y="848.591">WeightedCost</text><line style="stroke:#181818;stroke-width:0.5;" x1="1177.5" x2="1302.5" y1="859.3" y2="859.3"/><line style="stroke:#181818;stroke-width:0.5;" x1="1177.5" x2="1302.5" y1="867.3" y2="867.3"/></g><!--class AlgorithmFactory--><g id="elem_AlgorithmFactory"><rect codeLine="107" fill="#F1F1F1" height="64.4883" id="AlgorithmFactory" rx="2.5" ry="2.5" style="stroke:#181818;stroke-width:0.5;" width="241" x="579.5" y="255.15"/><ellipse cx="636.25" cy="271.15" fill="#ADD1B2" rx="11" ry="11" style="stroke:#181818;stroke-width:1.0;"/><path d="M638.7231,277.2931 Q638.1421,277.5919 637.5029,277.7413 Q636.8638,277.8907 636.1582,277.8907 Q633.6514,277.8907 632.3315,276.2389 Q631.0117,274.587 631.0117,271.4659 Q631.0117,268.3365 632.3315,266.6847 Q633.6514,265.0328 636.1582,265.0328 Q636.8638,265.0328 637.5112,265.1822 Q638.1587,265.3316 638.7231,265.6305 L638.7231,268.3531 Q638.0923,267.7721 637.4988,267.5023 Q636.9053,267.2325 636.2744,267.2325 Q634.9297,267.2325 634.2449,268.2992 Q633.5601,269.3658 633.5601,271.4659 Q633.5601,273.5577 634.2449,274.6244 Q634.9297,275.691 636.2744,275.691 Q636.9053,275.691 637.4988,275.4212 Q638.0923,275.1515 638.7231,274.5704 Z " fill="#000000"/><text fill="#000000" font-family="sans-serif" font-size="14" lengthAdjust="spacing" textLength="119" x="656.75" y="276.441">AlgorithmFactory</text><line style="stroke:#181818;stroke-width:0.5;" x1="580.5" x2="819.5" y1="287.15" y2="287.15"/><line style="stroke:#181818;stroke-width:0.5;" x1="580.5" x2="819.5" y1="295.15" y2="295.15"/><text fill="#000000" font-family="sans-serif" font-size="14" lengthAdjust="spacing" textLength="229" x="585.5" y="312.6852">+create(type : string) : IAlgorithm</text></g><!--class EvaluatorFactory--><g id="elem_EvaluatorFactory"><rect codeLine="111" fill="#F1F1F1" height="64.4883" id="EvaluatorFactory" rx="2.5" ry="2.5" style="stroke:#181818;stroke-width:0.5;" width="236" x="856" y="255.15"/><ellipse cx="912.75" cy="271.15" fill="#ADD1B2" rx="11" ry="11" style="stroke:#181818;stroke-width:1.0;"/><path d="M915.2231,277.2931 Q914.6421,277.5919 914.0029,277.7413 Q913.3638,277.8907 912.6582,277.8907 Q910.1514,277.8907 908.8315,276.2389 Q907.5117,274.587 907.5117,271.4659 Q907.5117,268.3365 908.8315,266.6847 Q910.1514,265.0328 912.6582,265.0328 Q913.3638,265.0328 914.0112,265.1822 Q914.6587,265.3316 915.2231,265.6305 L915.2231,268.3531 Q914.5923,267.7721 913.9988,267.5023 Q913.4053,267.2325 912.7744,267.2325 Q911.4297,267.2325 910.7449,268.2992 Q910.0601,269.3658 910.0601,271.4659 Q910.0601,273.5577 910.7449,274.6244 Q911.4297,275.691 912.7744,275.691 Q913.4053,275.691 913.9988,275.4212 Q914.5923,275.1515 915.2231,274.5704 Z " fill="#000000"/><text fill="#000000" font-family="sans-serif" font-size="14" lengthAdjust="spacing" textLength="114" x="933.25" y="276.441">EvaluatorFactory</text><line style="stroke:#181818;stroke-width:0.5;" x1="857" x2="1091" y1="287.15" y2="287.15"/><line style="stroke:#181818;stroke-width:0.5;" x1="857" x2="1091" y1="295.15" y2="295.15"/><text fill="#000000" font-family="sans-serif" font-size="14" lengthAdjust="spacing" textLength="224" x="862" y="312.6852">+create(type : string) : IEvaluator</text></g><!--class CostModelFactory--><g id="elem_CostModelFactory"><rect codeLine="115" fill="#F1F1F1" height="64.4883" id="CostModelFactory" rx="2.5" ry="2.5" style="stroke:#181818;stroke-width:0.5;" width="245" x="1127.5" y="255.15"/><ellipse cx="1184.25" cy="271.15" fill="#ADD1B2" rx="11" ry="11" style="stroke:#181818;stroke-width:1.0;"/><path d="M1186.7231,277.2931 Q1186.1421,277.5919 1185.5029,277.7413 Q1184.8638,277.8907 1184.1582,277.8907 Q1181.6514,277.8907 1180.3315,276.2389 Q1179.0117,274.587 1179.0117,271.4659 Q1179.0117,268.3365 1180.3315,266.6847 Q1181.6514,265.0328 1184.1582,265.0328 Q1184.8638,265.0328 1185.5112,265.1822 Q1186.1587,265.3316 1186.7231,265.6305 L1186.7231,268.3531 Q1186.0923,267.7721 1185.4988,267.5023 Q1184.9053,267.2325 1184.2744,267.2325 Q1182.9297,267.2325 1182.2449,268.2992 Q1181.5601,269.3658 1181.5601,271.4659 Q1181.5601,273.5577 1182.2449,274.6244 Q1182.9297,275.691 1184.2744,275.691 Q1184.9053,275.691 1185.4988,275.4212 Q1186.0923,275.1515 1186.7231,274.5704 Z " fill="#000000"/><text fill="#000000" font-family="sans-serif" font-size="14" lengthAdjust="spacing" textLength="123" x="1204.75" y="276.441">CostModelFactory</text><line style="stroke:#181818;stroke-width:0.5;" x1="1128.5" x2="1371.5" y1="287.15" y2="287.15"/><line style="stroke:#181818;stroke-width:0.5;" x1="1128.5" x2="1371.5" y1="295.15" y2="295.15"/><text fill="#000000" font-family="sans-serif" font-size="14" lengthAdjust="spacing" textLength="233" x="1133.5" y="312.6852">+create(type : string) : ICostModel</text></g><!--class SolverFactory--><g id="elem_SolverFactory"><rect codeLine="127" fill="#F1F1F1" height="64.4883" id="SolverFactory" rx="2.5" ry="2.5" style="stroke:#181818;stroke-width:0.5;" width="326" x="480" y="56.47"/><ellipse cx="592.75" cy="72.47" fill="#ADD1B2" rx="11" ry="11" style="stroke:#181818;stroke-width:1.0;"/><path d="M595.2231,78.6131 Q594.6421,78.9119 594.0029,79.0613 Q593.3638,79.2107 592.6582,79.2107 Q590.1514,79.2107 588.8315,77.5589 Q587.5117,75.907 587.5117,72.7859 Q587.5117,69.6565 588.8315,68.0047 Q590.1514,66.3528 592.6582,66.3528 Q593.3638,66.3528 594.0112,66.5022 Q594.6587,66.6516 595.2231,66.9505 L595.2231,69.6731 Q594.5923,69.0921 593.9988,68.8223 Q593.4053,68.5525 592.7744,68.5525 Q591.4297,68.5525 590.7449,69.6192 Q590.0601,70.6858 590.0601,72.7859 Q590.0601,74.8777 590.7449,75.9444 Q591.4297,77.011 592.7744,77.011 Q593.4053,77.011 593.9988,76.7412 Q594.5923,76.4715 595.2231,75.8904 Z " fill="#000000"/><text fill="#000000" font-family="sans-serif" font-size="14" lengthAdjust="spacing" textLength="92" x="613.25" y="77.761">SolverFactory</text><line style="stroke:#181818;stroke-width:0.5;" x1="481" x2="805" y1="88.47" y2="88.47"/><line style="stroke:#181818;stroke-width:0.5;" x1="481" x2="805" y1="96.47" y2="96.47"/><text fill="#000000" font-family="sans-serif" font-size="14" lengthAdjust="spacing" textLength="314" x="486" y="114.0052">+create(config : string) : PhaseOrderingSolver</text></g><!--class SolverBuilder--><g id="elem_SolverBuilder"><rect codeLine="141" fill="#F1F1F1" height="163.418" id="SolverBuilder" rx="2.5" ry="2.5" style="stroke:#181818;stroke-width:0.5;" width="314" x="841" y="7"/><ellipse cx="948.75" cy="23" fill="#ADD1B2" rx="11" ry="11" style="stroke:#181818;stroke-width:1.0;"/><path d="M951.2231,29.1431 Q950.6421,29.4419 950.0029,29.5913 Q949.3638,29.7407 948.6582,29.7407 Q946.1514,29.7407 944.8315,28.0889 Q943.5117,26.437 943.5117,23.3159 Q943.5117,20.1865 944.8315,18.5347 Q946.1514,16.8828 948.6582,16.8828 Q949.3638,16.8828 950.0112,17.0322 Q950.6587,17.1816 951.2231,17.4805 L951.2231,20.2031 Q950.5923,19.6221 949.9988,19.3523 Q949.4053,19.0825 948.7744,19.0825 Q947.4297,19.0825 946.7449,20.1492 Q946.0601,21.2158 946.0601,23.3159 Q946.0601,25.4077 946.7449,26.4744 Q947.4297,27.541 948.7744,27.541 Q949.4053,27.541 949.9988,27.2712 Q950.5923,27.0015 951.2231,26.4204 Z " fill="#000000"/><text fill="#000000" font-family="sans-serif" font-size="14" lengthAdjust="spacing" textLength="90" x="969.25" y="28.291">SolverBuilder</text><line style="stroke:#181818;stroke-width:0.5;" x1="842" x2="1154" y1="39" y2="39"/><text fill="#000000" font-family="sans-serif" font-size="14" lengthAdjust="spacing" textLength="160" x="847" y="56.5352">-algorithmType : string</text><text fill="#000000" font-family="sans-serif" font-size="14" lengthAdjust="spacing" textLength="157" x="847" y="73.0234">-evaluatorType : string</text><text fill="#000000" font-family="sans-serif" font-size="14" lengthAdjust="spacing" textLength="121" x="847" y="89.5117">-costType : string</text><line style="stroke:#181818;stroke-width:0.5;" x1="842" x2="1154" y1="96.4648" y2="96.4648"/><text fill="#000000" font-family="sans-serif" font-size="14" lengthAdjust="spacing" textLength="302" x="847" y="114">+withAlgorithm(type : string) : SolverBuilder</text><text fill="#000000" font-family="sans-serif" font-size="14" lengthAdjust="spacing" textLength="297" x="847" y="130.4883">+withEvaluator(type : string) : SolverBuilder</text><text fill="#000000" font-family="sans-serif" font-size="14" lengthAdjust="spacing" textLength="264" x="847" y="146.9766">+withCost(type : string) : SolverBuilder</text><text fill="#000000" font-family="sans-serif" font-size="14" lengthAdjust="spacing" textLength="212" x="847" y="163.4648">+build() : PhaseOrderingSolver</text></g><!--class SequenceGenerator--><g id="elem_SequenceGenerator"><rect codeLine="161" fill="#F1F1F1" height="80.9766" id="SequenceGenerator" rx="2.5" ry="2.5" style="stroke:#181818;stroke-width:0.5;" width="319" x="758.5" y="669.84"/><ellipse cx="846.25" cy="685.84" fill="#ADD1B2" rx="11" ry="11" style="stroke:#181818;stroke-width:1.0;"/><path d="M848.7231,691.9831 Q848.1421,692.2819 847.5029,692.4313 Q846.8638,692.5807 846.1582,692.5807 Q843.6514,692.5807 842.3315,690.9289 Q841.0117,689.277 841.0117,686.1559 Q841.0117,683.0265 842.3315,681.3747 Q843.6514,679.7228 846.1582,679.7228 Q846.8638,679.7228 847.5112,679.8722 Q848.1587,680.0216 848.7231,680.3205 L848.7231,683.0431 Q848.0923,682.4621 847.4988,682.1923 Q846.9053,681.9225 846.2744,681.9225 Q844.9297,681.9225 844.2449,682.9892 Q843.5601,684.0558 843.5601,686.1559 Q843.5601,688.2477 844.2449,689.3144 Q844.9297,690.381 846.2744,690.381 Q846.9053,690.381 847.4988,690.1112 Q848.0923,689.8415 848.7231,689.2604 Z " fill="#000000"/><text fill="#000000" font-family="sans-serif" font-size="14" lengthAdjust="spacing" textLength="135" x="866.75" y="691.131">SequenceGenerator</text><line style="stroke:#181818;stroke-width:0.5;" x1="759.5" x2="1076.5" y1="701.84" y2="701.84"/><line style="stroke:#181818;stroke-width:0.5;" x1="759.5" x2="1076.5" y1="709.84" y2="709.84"/><text fill="#000000" font-family="sans-serif" font-size="14" lengthAdjust="spacing" textLength="178" x="764.5" y="727.3752">+random() : OptSequence</text><text fill="#000000" font-family="sans-serif" font-size="14" lengthAdjust="spacing" textLength="307" x="764.5" y="743.8634">+mutate(base : OptSequence) : OptSequence</text></g><!--link PhaseOrderingSolver to IAlgorithm--><g id="link_PhaseOrderingSolver_IAlgorithm"><path codeLine="55" d="M518.32,344.74 C540.05,364.07 559.667,381.5222 580.577,400.1222 " fill="none" id="PhaseOrderingSolver-to-IAlgorithm" style="stroke:#181818;stroke-width:1.0;"/><polygon fill="#181818" points="585.06,404.11,580.994,395.1396,581.3241,400.7869,575.6769,401.117,585.06,404.11" style="stroke:#181818;stroke-width:1.0;"/></g><!--link PhaseOrderingSolver to IEvaluator--><g id="link_PhaseOrderingSolver_IEvaluator"><path codeLine="56" d="M460.49,344.48 C465.64,388.01 474.86,449.54 490,501.84 C508.72,566.48 539.3407,632.5565 559.1707,672.4765 " fill="none" id="PhaseOrderingSolver-to-IEvaluator" style="stroke:#181818;stroke-width:1.0;"/><polygon fill="#181818" points="561.84,677.85,561.4185,668.0102,559.6156,673.372,554.2537,671.5692,561.84,677.85" style="stroke:#181818;stroke-width:1.0;"/></g><!--link PhaseOrderingSolver to ICostModel--><g id="link_PhaseOrderingSolver_ICostModel"><path codeLine="57" d="M544.83,337.19 C550.58,339.75 556.33,342.17 562,344.37 C658.86,382.03 689.97,369.86 788,404.37 C950.81,461.69 1011.35,450.21 1143,561.84 C1181.1,594.14 1207.3815,639.7064 1223.3515,672.4764 " fill="none" id="PhaseOrderingSolver-to-ICostModel" style="stroke:#181818;stroke-width:1.0;"/><polygon fill="#181818" points="1225.98,677.87,1225.633,668.0273,1223.7896,673.3753,1218.4415,671.5319,1225.98,677.87" style="stroke:#181818;stroke-width:1.0;"/></g><!--reverse link IAlgorithm to RandomSearch--><g id="link_IAlgorithm_RandomSearch"><path codeLine="66" d="M754.2092,510.0983 C795.7092,530.2683 825.86,544.92 859.67,561.35 " fill="none" id="IAlgorithm-backto-RandomSearch" style="stroke:#181818;stroke-width:1.0;stroke-dasharray:7.0,7.0;"/><polygon fill="none" points="738.02,502.23,751.5864,515.4947,756.832,504.7019,738.02,502.23" style="stroke:#181818;stroke-width:1.0;"/></g><!--reverse link IAlgorithm to HillClimbing--><g id="link_IAlgorithm_HillClimbing"><path codeLine="67" d="M787.3715,499.1864 C854.1015,519.4764 919.27,539.32 993,561.84 C998.47,563.51 1004.16,565.25 1009.86,567 " fill="none" id="IAlgorithm-backto-HillClimbing" style="stroke:#181818;stroke-width:1.0;stroke-dasharray:7.0,7.0;"/><polygon fill="none" points="770.15,493.95,785.626,504.9269,789.117,493.4459,770.15,493.95" style="stroke:#181818;stroke-width:1.0;"/></g><!--link RandomSearch to IEvaluator--><g id="link_RandomSearch_IEvaluator"><path codeLine="69" d="M844.76,610.31 C793.3,629.41 725.785,654.472 669.105,675.512 " fill="none" id="RandomSearch-to-IEvaluator" style="stroke:#181818;stroke-width:1.0;stroke-dasharray:7.0,7.0;"/><polygon fill="#181818" points="663.48,677.6,673.3095,678.2179,668.1675,675.86,670.5254,670.718,663.48,677.6" style="stroke:#181818;stroke-width:1.0;"/></g><!--link RandomSearch to ICostModel--><g id="link_RandomSearch_ICostModel"><path codeLine="70" d="M971.62,610.31 C1023.4,629.41 1091.3509,654.4833 1148.3809,675.5233 " fill="none" id="RandomSearch-to-ICostModel" style="stroke:#181818;stroke-width:1.0;stroke-dasharray:7.0,7.0;"/><polygon fill="#181818" points="1154.01,677.6,1146.9508,670.7321,1149.3191,675.8694,1144.1818,678.2376,1154.01,677.6" style="stroke:#181818;stroke-width:1.0;"/></g><!--link HillClimbing to IEvaluator--><g id="link_HillClimbing_IEvaluator"><path codeLine="71" d="M1009.56,605.16 C1003.97,606.79 998.39,608.37 993,609.84 C881.91,640.06 852.95,642.95 741,669.84 C730.52,672.35 725.5026,673.5627 714.6026,676.1927 " fill="none" id="HillClimbing-to-IEvaluator" style="stroke:#181818;stroke-width:1.0;stroke-dasharray:7.0,7.0;"/><polygon fill="#181818" points="708.77,677.6,718.4571,679.3774,713.6305,676.4272,716.5807,671.6006,708.77,677.6" style="stroke:#181818;stroke-width:1.0;"/></g><!--link HillClimbing to ICostModel--><g id="link_HillClimbing_ICostModel"><path codeLine="72" d="M1100.76,610.17 C1127.66,629.32 1161.133,653.159 1190.783,674.279 " fill="none" id="HillClimbing-to-ICostModel" style="stroke:#181818;stroke-width:1.0;stroke-dasharray:7.0,7.0;"/><polygon fill="#181818" points="1195.67,677.76,1190.6602,669.2805,1191.5975,674.8591,1186.0189,675.7964,1195.67,677.76" style="stroke:#181818;stroke-width:1.0;"/></g><!--reverse link IEvaluator to LLVMEvaluator--><g id="link_IEvaluator_LLVMEvaluator"><path codeLine="83" d="M578,760.86 C578,780.88 578,788.97 578,810.42 " fill="none" id="IEvaluator-backto-LLVMEvaluator" style="stroke:#181818;stroke-width:1.0;stroke-dasharray:7.0,7.0;"/><polygon fill="none" points="578,742.86,572,760.86,584,760.86,578,742.86" style="stroke:#181818;stroke-width:1.0;"/></g><!--link LLVMEvaluator to LLVMFacade--><g id="link_LLVMEvaluator_LLVMFacade"><path codeLine="85" d="M533.4,892.24 C512.1,911.31 491.4508,929.8085 471.5408,947.6285 " fill="none" id="LLVMEvaluator-to-LLVMFacade" style="stroke:#181818;stroke-width:1.0;"/><polygon fill="#181818" points="467.07,951.63,476.4439,948.6083,470.7957,948.2954,471.1085,942.6472,467.07,951.63" style="stroke:#181818;stroke-width:1.0;"/></g><!--link LLVMEvaluator to IRAnalyzer--><g id="link_LLVMEvaluator_IRAnalyzer"><path codeLine="86" d="M622.6,892.24 C643.9,911.31 664.5492,929.8085 684.4592,947.6285 " fill="none" id="LLVMEvaluator-to-IRAnalyzer" style="stroke:#181818;stroke-width:1.0;"/><polygon fill="#181818" points="688.93,951.63,684.8915,942.6472,685.2043,948.2954,679.5561,948.6083,688.93,951.63" style="stroke:#181818;stroke-width:1.0;"/></g><!--reverse link ICostModel to WeightedCost--><g id="link_ICostModel_WeightedCost"><path codeLine="101" d="M1240,760.86 C1240,786.49 1240,804.05 1240,827.12 " fill="none" id="ICostModel-backto-WeightedCost" style="stroke:#181818;stroke-width:1.0;stroke-dasharray:7.0,7.0;"/><polygon fill="none" points="1240,742.86,1234,760.86,1246,760.86,1240,742.86" style="stroke:#181818;stroke-width:1.0;"/></g><!--link AlgorithmFactory to IAlgorithm--><g id="link_AlgorithmFactory_IAlgorithm"><path codeLine="119" d="M688.24,319.96 C679.34,343.84 669.0656,371.4179 658.9456,398.5679 " fill="none" id="AlgorithmFactory-to-IAlgorithm" style="stroke:#181818;stroke-width:1.0;"/><polygon fill="#181818" points="656.85,404.19,663.7415,397.1539,658.5963,399.5049,656.2453,394.3597,656.85,404.19" style="stroke:#181818;stroke-width:1.0;"/></g><!--link EvaluatorFactory to IEvaluator--><g id="link_EvaluatorFactory_IEvaluator"><path codeLine="120" d="M947.91,319.79 C912.56,361.98 847.06,438.96 788,501.84 C727.65,566.09 657.9472,633.5345 615.8472,673.5845 " fill="none" id="EvaluatorFactory-to-IEvaluator" style="stroke:#181818;stroke-width:1.0;"/><polygon fill="#181818" points="611.5,677.72,620.7777,674.4149,615.1226,674.2738,615.2638,668.6187,611.5,677.72" style="stroke:#181818;stroke-width:1.0;"/></g><!--link CostModelFactory to ICostModel--><g id="link_CostModelFactory_ICostModel"><path codeLine="121" d="M1249.25,320.04 C1247.39,398.14 1242.7527,593.4217 1240.8927,671.6117 " fill="none" id="CostModelFactory-to-ICostModel" style="stroke:#181818;stroke-width:1.0;"/><polygon fill="#181818" points="1240.75,677.61,1244.9629,668.7077,1240.8689,672.6114,1236.9652,668.5174,1240.75,677.61" style="stroke:#181818;stroke-width:1.0;"/></g><!--link SolverFactory to AlgorithmFactory--><g id="link_SolverFactory_AlgorithmFactory"><path codeLine="131" d="M652.16,121.31 C662.79,158.02 678.5709,212.4368 689.1909,249.1068 " fill="none" id="SolverFactory-to-AlgorithmFactory" style="stroke:#181818;stroke-width:1.0;"/><polygon fill="#181818" points="690.86,254.87,692.1985,245.1125,689.4691,250.0674,684.5143,247.338,690.86,254.87" style="stroke:#181818;stroke-width:1.0;"/></g><!--link SolverFactory to EvaluatorFactory--><g id="link_SolverFactory_EvaluatorFactory"><path codeLine="132" d="M696.18,121.31 C757.86,157.96 853.7817,214.9654 915.5217,251.6454 " fill="none" id="SolverFactory-to-EvaluatorFactory" style="stroke:#181818;stroke-width:1.0;"/><polygon fill="#181818" points="920.68,254.71,914.9856,246.6742,916.3814,252.1562,910.8995,253.552,920.68,254.71" style="stroke:#181818;stroke-width:1.0;"/></g><!--link SolverFactory to CostModelFactory--><g id="link_SolverFactory_CostModelFactory"><path codeLine="133" d="M704.95,121.28 C739.32,137.78 783.25,157.23 824,170.42 C947.56,210.43 985.68,192.84 1110,230.42 C1132.43,237.2 1150.7154,243.8361 1172.2654,252.5261 " fill="none" id="SolverFactory-to-CostModelFactory" style="stroke:#181818;stroke-width:1.0;"/><polygon fill="#181818" points="1177.83,254.77,1170.979,247.6944,1173.1928,252.9001,1167.9871,255.1139,1177.83,254.77" style="stroke:#181818;stroke-width:1.0;"/></g><!--link SolverFactory to PhaseOrderingSolver--><g id="link_SolverFactory_PhaseOrderingSolver"><path codeLine="135" d="M612.79,121.31 C584.77,150.63 546.5658,190.6027 512.7958,225.9327 " fill="none" id="SolverFactory-to-PhaseOrderingSolver" style="stroke:#181818;stroke-width:1.0;"/><polygon fill="#181818" points="508.65,230.27,517.7602,226.5279,512.1048,226.6556,511.9772,221.0002,508.65,230.27" style="stroke:#181818;stroke-width:1.0;"/></g><!--link SolverBuilder to PhaseOrderingSolver--><g id="link_SolverBuilder_PhaseOrderingSolver"><path codeLine="152" d="M840.68,164.43 C835.09,166.53 829.51,168.53 824,170.42 C710.98,209.1 674.07,189.06 562,230.42 C556.3,232.53 556.012,232.4766 550.242,234.9866 " fill="none" id="SolverBuilder-to-PhaseOrderingSolver" style="stroke:#181818;stroke-width:1.0;"/><polygon fill="#181818" points="544.74,237.38,554.5885,237.4579,549.325,235.3855,551.3973,230.1219,544.74,237.38" style="stroke:#181818;stroke-width:1.0;"/></g><!--link SolverBuilder to AlgorithmFactory--><g id="link_SolverBuilder_AlgorithmFactory"><path codeLine="153" d="M875.07,170.85 C830.34,200.37 787.3775,228.7247 752.9875,251.4247 " fill="none" id="SolverBuilder-to-AlgorithmFactory" style="stroke:#181818;stroke-width:1.0;"/><polygon fill="#181818" points="747.98,254.73,757.6948,253.1103,752.1529,251.9756,753.2877,246.4337,747.98,254.73" style="stroke:#181818;stroke-width:1.0;"/></g><!--link SolverBuilder to EvaluatorFactory--><g id="link_SolverBuilder_EvaluatorFactory"><path codeLine="154" d="M988.1,170.85 C984.48,200.48 981.339,226.3045 978.559,249.0145 " fill="none" id="SolverBuilder-to-EvaluatorFactory" style="stroke:#181818;stroke-width:1.0;"/><polygon fill="#181818" points="977.83,254.97,982.8939,246.5227,978.4375,250.007,974.9532,245.5507,977.83,254.97" style="stroke:#181818;stroke-width:1.0;"/></g><!--link SolverBuilder to CostModelFactory--><g id="link_SolverBuilder_CostModelFactory"><path codeLine="155" d="M1101.95,170.85 C1139.78,200.37 1175.6098,228.3388 1204.6998,251.0388 " fill="none" id="SolverBuilder-to-CostModelFactory" style="stroke:#181818;stroke-width:1.0;"/><polygon fill="#181818" points="1209.43,254.73,1204.7954,246.0397,1205.4881,251.654,1199.8739,252.3467,1209.43,254.73" style="stroke:#181818;stroke-width:1.0;"/></g><!--link RandomSearch to SequenceGenerator--><g id="link_RandomSearch_SequenceGenerator"><path codeLine="166" d="M909.9,610.17 C911.28,626.96 912.6733,644.0598 914.2733,663.7198 " fill="none" id="RandomSearch-to-SequenceGenerator" style="stroke:#181818;stroke-width:1.0;"/><polygon fill="#181818" points="914.76,669.7,918.0168,660.4052,914.3544,664.7165,910.0431,661.0541,914.76,669.7" style="stroke:#181818;stroke-width:1.0;"/></g><!--link HillClimbing to SequenceGenerator--><g id="link_HillClimbing_SequenceGenerator"><path codeLine="167" d="M1039.43,610.17 C1018.95,626.89 995.487,646.0446 971.477,665.6546 " fill="none" id="HillClimbing-to-SequenceGenerator" style="stroke:#181818;stroke-width:1.0;"/><polygon fill="#181818" points="966.83,669.45,976.3308,666.8549,970.7025,666.2871,971.2702,660.6589,966.83,669.45" style="stroke:#181818;stroke-width:1.0;"/></g><!--SRC=[bLPDSvim4BtpAtGhcTQUdZDjPuZZ9CpWaW4ddHu5R6nD1NA4IEEq-U-L-90bm3Rb1hjwUllqj4lvYnGxp76EKehBqXE2awGIuAUiYCaReC-Eym5zFVR8cFzzlOnklCKoHcuiE1QmsL-SNEEGGW1_mYaWtwCRnedOvkYFW-Jp4V6gS5FnYYwHYYsOp7qLd-fWyy0BfXKMZCiKVzczc1afAyMAPK1Lng9xkMWX8oWhAfntYuV6qJpQRS0juLck37SYXkSAYXGKa1-jG4gLbZqSlPl6ALF6mSsRR7EbWibObL1G6AT5llRMtcbDw-Cp9TC4SlpgItvO45Oe0f9j6ta1dh0IvBU4CQfO750QbJH80gMktrR3J52bMbKrUBfa3KUAKl0g7LBA8MTy7-xihz8JWkHZq2QHCnh6OV2uZAQeUB_59OGy0qwAJSoerAbbFaDO6_RIS6yR7BTc6nntfTFPH6tZ3ZqwncKs-sRkVJJbmE1eYi7Zj7fUS1j6_lfk5KzHCC95nl8OC4-txQSxGkc2aZoH31p7kFXV_ixdze9-q5vgfgBvtAfp63iKQABqrmrZauLPFdh1WxSE8-JUu1HdeCnDChYOebCGFAxwhMU6A7rHzbB11hBpNe7f_WrgTqLU-w9COhIlMZ0Brd7iNTIv6z33e85jq6oBwsumtkte_bu6eHplaFA2g-Coca27Ui1eFhY4w_n1Rpqj_YACrsWLNY-3oSEdOVC3o6Oh85F7x1XTkvRF2fvX82UVF7j_6KzjpxMlfPXIxRrM8kMWHetOxy2Mud3BjP3wi2Q37AoWGNJ5aq4E5qA230hfjQG1nru_6cp_VyseQUMjzZ-dAD_ql2F5od-T9xAnoXrfcAfk6qQHxYinaj8NOoIbhyVOJcEKpkXqzU07rr8eb-tKgCKKoNyxL91qMdTgDhcg2Ct69k3Qz4X_0eu5rGIqlxVdy5l2QI67thDu64kqiDENAA6dPIVgpJthXKwTOoSqp3hY63FbY6FCbA5ZJblXOUq7atfKryDleL0_ZSOVCQ-7Qot9yFylhuIwIWakOJWBpFJttWHNnGpsj0VoUCe_]--></g></svg>