<?xml version="1.0" encoding="us-ascii" standalone="no"?><svg xmlns="http://www.w3.org/2000/svg" xmlns:xlink="http://www.w3.org/1999/xlink" contentStyleType="text/css" height="1098px" preserveAspectRatio="none" style="width:2062px;height:1098px;background:#FAFAFA;" version="1.1" viewBox="0 0 2062 1098" width="2062px" zoomAndPan="magnify"><defs/><g><rect fill="#FAFAFA" height="1098" style="stroke:none;stroke-width:1.0;" width="2062" x="0" y="0"/><text fill="#2C3E50" font-family="Helvetica Neue" font-size="18" font-weight="bold" lengthAdjust="spacing" textLength="210" x="919" y="28.072">Phase-Ordering Schema</text><!--class IAlgorithm--><g id="elem_IAlgorithm"><rect codeLine="7" fill="#F1F1F1" height="61.574" id="IAlgorithm" rx="4" ry="4" style="stroke:#181818;stroke-width:0.5;" width="265" x="1150" y="405.578"/><ellipse cx="1249.5" cy="420.578" fill="#B4A7E5" rx="10" ry="10" style="stroke:#181818;stroke-width:1.0;"/><path d="M1246.5918,417.7513 L1246.5918,416.1009 L1252.2349,416.1009 L1252.2349,417.7513 L1250.3496,417.7513 L1250.3496,423.9276 L1252.2349,423.9276 L1252.2349,425.578 L1246.5918,425.578 L1246.5918,423.9276 L1248.4771,423.9276 L1248.4771,417.7513 Z " fill="#2C3E50"/><text fill="#2C3E50" font-family="Helvetica Neue" font-size="13" font-style="italic" lengthAdjust="spacing" textLength="58" x="1268.5" y="425.596">IAlgorithm</text><line style="stroke:#181818;stroke-width:0.5;" x1="1151" x2="1414" y1="435.578" y2="435.578"/><line style="stroke:#181818;stroke-width:0.5;" x1="1151" x2="1414" y1="443.578" y2="443.578"/><ellipse cx="1161" cy="456.865" fill="#84BE84" rx="3" ry="3" style="stroke:#038048;stroke-width:1.0;"/><text fill="#2C3E50" font-family="Helvetica Neue" font-size="13" font-style="italic" lengthAdjust="spacing" textLength="240" x="1169" y="460.383">run(ctx : const AlgoContext&amp;) : AlgoResult</text></g><!--class AlgoContext--><g id="elem_AlgoContext"><rect codeLine="11" fill="#F1F1F1" height="139.054" id="AlgoContext" rx="4" ry="4" style="stroke:#181818;stroke-width:0.5;" width="215" x="697" y="605.668"/><ellipse cx="765.5" cy="620.668" fill="#F1F1F1" rx="10" ry="10" style="stroke:#181818;stroke-width:1.0;"/><path d="M764.9873,621.0103 Q763.5718,620.4707 763.0703,619.8772 Q762.5688,619.2837 762.5688,618.2808 Q762.5688,616.9922 763.394,616.2559 Q764.2192,615.5196 765.6602,615.5196 Q766.314,615.5196 766.9678,615.6687 Q767.6216,615.8179 768.2627,616.1099 L768.2627,617.938 Q767.6597,617.5127 767.0376,617.2906 Q766.4155,617.0684 765.8062,617.0684 Q765.127,617.0684 764.7651,617.3413 Q764.4033,617.6143 764.4033,618.1221 Q764.4033,618.5157 764.6667,618.7727 Q764.9302,619.0298 765.7681,619.3409 L766.5742,619.6455 Q767.7168,620.0645 768.2563,620.7564 Q768.7959,621.4483 768.7959,622.502 Q768.7959,623.9366 767.9485,624.6443 Q767.1011,625.3521 765.3872,625.3521 Q764.6826,625.3521 763.9749,625.1839 Q763.2671,625.0157 762.6069,624.6856 L762.6069,622.7495 Q763.356,623.2827 764.0574,623.543 Q764.7588,623.8033 765.4443,623.8033 Q766.1362,623.8033 766.5171,623.489 Q766.8979,623.1748 766.8979,622.6099 Q766.8979,622.1846 766.644,621.864 Q766.3901,621.5435 765.9077,621.3594 Z " fill="#2C3E50"/><text fill="#2C3E50" font-family="Helvetica Neue" font-size="13" lengthAdjust="spacing" textLength="70" x="784.5" y="625.6535">AlgoContext</text><line style="stroke:#181818;stroke-width:0.5;" x1="698" x2="911" y1="635.668" y2="635.668"/><text fill="#2C3E50" font-family="Helvetica Neue" font-size="13" lengthAdjust="spacing" textLength="122" x="703" y="652.408">ir : const std::string&amp;</text><text fill="#2C3E50" font-family="Helvetica Neue" font-size="13" lengthAdjust="spacing" textLength="203" x="703" y="667.917">baselineMetrics : const IRMetrics&amp;</text><text fill="#2C3E50" font-family="Helvetica Neue" font-size="13" lengthAdjust="spacing" textLength="156" x="703" y="683.426">llvm : const LLVMFacade&amp;</text><text fill="#2C3E50" font-family="Helvetica Neue" font-size="13" lengthAdjust="spacing" textLength="165" x="703" y="698.935">analyzer : const IRAnalyzer&amp;</text><text fill="#2C3E50" font-family="Helvetica Neue" font-size="13" lengthAdjust="spacing" textLength="118" x="703" y="714.444">maxEvaluations : int</text><text fill="#2C3E50" font-family="Helvetica Neue" font-size="13" lengthAdjust="spacing" textLength="84" x="703" y="729.953">verbose : bool</text><line style="stroke:#181818;stroke-width:0.5;" x1="698" x2="911" y1="736.722" y2="736.722"/></g><!--class AlgoResult--><g id="elem_AlgoResult"><rect codeLine="20" fill="#F1F1F1" height="123.545" id="AlgoResult" rx="4" ry="4" style="stroke:#181818;stroke-width:0.5;" width="188" x="1790.5" y="613.418"/><ellipse cx="1849.5" cy="628.418" fill="#F1F1F1" rx="10" ry="10" style="stroke:#181818;stroke-width:1.0;"/><path d="M1848.9873,628.7603 Q1847.5718,628.2207 1847.0703,627.6272 Q1846.5688,627.0337 1846.5688,626.0308 Q1846.5688,624.7422 1847.394,624.0059 Q1848.2192,623.2696 1849.6602,623.2696 Q1850.314,623.2696 1850.9678,623.4187 Q1851.6216,623.5679 1852.2627,623.8599 L1852.2627,625.688 Q1851.6597,625.2627 1851.0376,625.0406 Q1850.4155,624.8184 1849.8062,624.8184 Q1849.127,624.8184 1848.7651,625.0913 Q1848.4033,625.3643 1848.4033,625.8721 Q1848.4033,626.2657 1848.6667,626.5227 Q1848.9302,626.7798 1849.7681,627.0909 L1850.5742,627.3955 Q1851.7168,627.8145 1852.2563,628.5064 Q1852.7959,629.1983 1852.7959,630.252 Q1852.7959,631.6866 1851.9485,632.3943 Q1851.1011,633.1021 1849.3872,633.1021 Q1848.6826,633.1021 1847.9749,632.9339 Q1847.2671,632.7657 1846.6069,632.4356 L1846.6069,630.4995 Q1847.356,631.0327 1848.0574,631.293 Q1848.7588,631.5533 1849.4443,631.5533 Q1850.1362,631.5533 1850.5171,631.239 Q1850.8979,630.9248 1850.8979,630.3599 Q1850.8979,629.9346 1850.644,629.614 Q1850.3901,629.2935 1849.9077,629.1094 Z " fill="#2C3E50"/><text fill="#2C3E50" font-family="Helvetica Neue" font-size="13" lengthAdjust="spacing" textLength="62" x="1868.5" y="633.4035">AlgoResult</text><line style="stroke:#181818;stroke-width:0.5;" x1="1791.5" x2="1977.5" y1="643.418" y2="643.418"/><text fill="#2C3E50" font-family="Helvetica Neue" font-size="13" lengthAdjust="spacing" textLength="176" x="1796.5" y="660.158">bestSequence : OptSequence</text><text fill="#2C3E50" font-family="Helvetica Neue" font-size="13" lengthAdjust="spacing" textLength="136" x="1796.5" y="675.667">bestMetrics : IRMetrics</text><text fill="#2C3E50" font-family="Helvetica Neue" font-size="13" lengthAdjust="spacing" textLength="123" x="1796.5" y="691.176">evaluationsUsed : int</text><text fill="#2C3E50" font-family="Helvetica Neue" font-size="13" lengthAdjust="spacing" textLength="158" x="1796.5" y="706.685">improvementRatio : double</text><text fill="#2C3E50" font-family="Helvetica Neue" font-size="13" lengthAdjust="spacing" textLength="88" x="1796.5" y="722.194">log : std::string</text><line style="stroke:#181818;stroke-width:0.5;" x1="1791.5" x2="1977.5" y1="728.963" y2="728.963"/></g><!--class RandomSearch--><g id="elem_RandomSearch"><rect codeLine="30" fill="#F1F1F1" height="92.527" id="RandomSearch" rx="4" ry="4" style="stroke:#181818;stroke-width:0.5;" width="267" x="1489" y="628.928"/><ellipse cx="1574" cy="643.928" fill="#ADD1B2" rx="10" ry="10" style="stroke:#181818;stroke-width:1.0;"/><path d="M1575.8618,648.1551 Q1575.4175,648.3836 1574.9287,648.4978 Q1574.4399,648.6121 1573.9004,648.6121 Q1571.9834,648.6121 1570.9741,647.3489 Q1569.9648,646.0857 1569.9648,643.699 Q1569.9648,641.3059 1570.9741,640.0427 Q1571.9834,638.7796 1573.9004,638.7796 Q1574.4399,638.7796 1574.9351,638.8938 Q1575.4302,639.0081 1575.8618,639.2366 L1575.8618,641.3186 Q1575.3794,640.8743 1574.9255,640.668 Q1574.4717,640.4617 1573.9893,640.4617 Q1572.9609,640.4617 1572.4373,641.2774 Q1571.9136,642.093 1571.9136,643.699 Q1571.9136,645.2986 1572.4373,646.1143 Q1572.9609,646.93 1573.9893,646.93 Q1574.4717,646.93 1574.9255,646.7237 Q1575.3794,646.5174 1575.8618,646.073 Z " fill="#2C3E50"/><text fill="#2C3E50" font-family="Helvetica Neue" font-size="13" lengthAdjust="spacing" textLength="89" x="1593" y="648.9135">RandomSearch</text><line style="stroke:#181818;stroke-width:0.5;" x1="1490" x2="1755" y1="658.928" y2="658.928"/><rect fill="none" height="6" style="stroke:#C82930;stroke-width:1.0;" width="6" x="1497" y="669.1825"/><text fill="#2C3E50" font-family="Helvetica Neue" font-size="13" lengthAdjust="spacing" textLength="129" x="1508" y="675.668">sequenceLength_ : int</text><line style="stroke:#181818;stroke-width:1.0;" x1="1490" x2="1755" y1="682.437" y2="682.437"/><ellipse cx="1500" cy="695.6915" fill="#84BE84" rx="3" ry="3" style="stroke:#038048;stroke-width:1.0;"/><text fill="#2C3E50" font-family="Helvetica Neue" font-size="13" lengthAdjust="spacing" textLength="217" x="1508" y="699.177">RandomSearch(sequenceLength : int)</text><ellipse cx="1500" cy="711.2005" fill="#84BE84" rx="3" ry="3" style="stroke:#038048;stroke-width:1.0;"/><text fill="#2C3E50" font-family="Helvetica Neue" font-size="13" lengthAdjust="spacing" textLength="242" x="1508" y="714.686">run(ctx : const AlgoContext&amp;) : AlgoResult</text></g><!--class HillClimbing--><g id="elem_HillClimbing"><rect codeLine="37" fill="#F1F1F1" height="92.527" id="HillClimbing" rx="4" ry="4" style="stroke:#181818;stroke-width:0.5;" width="267" x="947" y="628.928"/><ellipse cx="1042" cy="643.928" fill="#ADD1B2" rx="10" ry="10" style="stroke:#181818;stroke-width:1.0;"/><path d="M1043.8618,648.1551 Q1043.4175,648.3836 1042.9287,648.4978 Q1042.4399,648.6121 1041.9004,648.6121 Q1039.9834,648.6121 1038.9741,647.3489 Q1037.9648,646.0857 1037.9648,643.699 Q1037.9648,641.3059 1038.9741,640.0427 Q1039.9834,638.7796 1041.9004,638.7796 Q1042.4399,638.7796 1042.9351,638.8938 Q1043.4302,639.0081 1043.8618,639.2366 L1043.8618,641.3186 Q1043.3794,640.8743 1042.9255,640.668 Q1042.4717,640.4617 1041.9893,640.4617 Q1040.9609,640.4617 1040.4373,641.2774 Q1039.9136,642.093 1039.9136,643.699 Q1039.9136,645.2986 1040.4373,646.1143 Q1040.9609,646.93 1041.9893,646.93 Q1042.4717,646.93 1042.9255,646.7237 Q1043.3794,646.5174 1043.8618,646.073 Z " fill="#2C3E50"/><text fill="#2C3E50" font-family="Helvetica Neue" font-size="13" lengthAdjust="spacing" textLength="69" x="1061" y="648.9135">HillClimbing</text><line style="stroke:#181818;stroke-width:0.5;" x1="948" x2="1213" y1="658.928" y2="658.928"/><rect fill="none" height="6" style="stroke:#C82930;stroke-width:1.0;" width="6" x="955" y="669.1825"/><text fill="#2C3E50" font-family="Helvetica Neue" font-size="13" lengthAdjust="spacing" textLength="121" x="966" y="675.668">maxNoImprove_ : int</text><line style="stroke:#181818;stroke-width:1.0;" x1="948" x2="1213" y1="682.437" y2="682.437"/><ellipse cx="958" cy="695.6915" fill="#84BE84" rx="3" ry="3" style="stroke:#038048;stroke-width:1.0;"/><text fill="#2C3E50" font-family="Helvetica Neue" font-size="13" lengthAdjust="spacing" textLength="209" x="966" y="699.177">RandomSearch(maxNoImprove : int)</text><ellipse cx="958" cy="711.2005" fill="#84BE84" rx="3" ry="3" style="stroke:#038048;stroke-width:1.0;"/><text fill="#2C3E50" font-family="Helvetica Neue" font-size="13" lengthAdjust="spacing" textLength="242" x="966" y="714.686">run(ctx : const AlgoContext&amp;) : AlgoResult</text></g><!--class IRAnalyzer--><g id="elem_IRAnalyzer"><rect codeLine="46" fill="#F1F1F1" height="123.545" id="IRAnalyzer" rx="4" ry="4" style="stroke:#181818;stroke-width:0.5;" width="487" x="247" y="374.588"/><ellipse cx="456" cy="389.588" fill="#ADD1B2" rx="10" ry="10" style="stroke:#181818;stroke-width:1.0;"/><path d="M457.8618,393.8151 Q457.4175,394.0436 456.9287,394.1578 Q456.4399,394.2721 455.9004,394.2721 Q453.9834,394.2721 452.9741,393.0089 Q451.9648,391.7457 451.9648,389.359 Q451.9648,386.9659 452.9741,385.7027 Q453.9834,384.4396 455.9004,384.4396 Q456.4399,384.4396 456.9351,384.5538 Q457.4302,384.6681 457.8618,384.8966 L457.8618,386.9786 Q457.3794,386.5343 456.9255,386.328 Q456.4717,386.1217 455.9893,386.1217 Q454.9609,386.1217 454.4373,386.9374 Q453.9136,387.753 453.9136,389.359 Q453.9136,390.9586 454.4373,391.7743 Q454.9609,392.59 455.9893,392.59 Q456.4717,392.59 456.9255,392.3837 Q457.3794,392.1774 457.8618,391.733 Z " fill="#2C3E50"/><text fill="#2C3E50" font-family="Helvetica Neue" font-size="13" lengthAdjust="spacing" textLength="61" x="475" y="394.5735">IRAnalyzer</text><line style="stroke:#181818;stroke-width:0.5;" x1="248" x2="733" y1="404.588" y2="404.588"/><rect fill="#F24D5C" height="6" style="stroke:#C82930;stroke-width:1.0;" width="6" x="255" y="414.8425"/><text fill="#2C3E50" font-family="Helvetica Neue" font-size="13" lengthAdjust="spacing" textLength="424" x="266" y="421.328">countOccurrences(ir : const std::string&amp;, pattern : const std::string&amp;) : int</text><line style="stroke:#181818;stroke-width:1.0;" x1="248" x2="733" y1="428.097" y2="428.097"/><ellipse cx="258" cy="441.3515" fill="#84BE84" rx="3" ry="3" style="stroke:#038048;stroke-width:1.0;"/><text fill="#2C3E50" font-family="Helvetica Neue" font-size="13" lengthAdjust="spacing" textLength="67" x="266" y="444.837">IRAnalyzer()</text><ellipse cx="258" cy="456.8605" fill="#84BE84" rx="3" ry="3" style="stroke:#038048;stroke-width:1.0;"/><text fill="#2C3E50" font-family="Helvetica Neue" font-size="13" lengthAdjust="spacing" textLength="239" x="266" y="460.346">analyze(ir : const std::string&amp;) : IRMetrics</text><ellipse cx="258" cy="472.3695" fill="#84BE84" rx="3" ry="3" style="stroke:#038048;stroke-width:1.0;"/><text fill="#2C3E50" font-family="Helvetica Neue" font-size="13" lengthAdjust="spacing" textLength="333" x="266" y="475.855">isBetter(a : const IRMetrics&amp;, b : const IRMetrics&amp;) : bool</text><ellipse cx="258" cy="487.8785" fill="#84BE84" rx="3" ry="3" style="stroke:#038048;stroke-width:1.0;"/><text fill="#2C3E50" font-family="Helvetica Neue" font-size="13" lengthAdjust="spacing" textLength="462" x="266" y="491.364">normalizeCost(metrics : const IRMetrics&amp;, baseline : const IRMetrics&amp;) : double</text></g><!--class IRMetrics--><g id="elem_IRMetrics"><rect codeLine="55" fill="#F1F1F1" height="232.108" id="IRMetrics" rx="4" ry="4" style="stroke:#181818;stroke-width:0.5;" width="166" x="407.5" y="559.138"/><ellipse cx="459" cy="574.138" fill="#F1F1F1" rx="10" ry="10" style="stroke:#181818;stroke-width:1.0;"/><path d="M458.4873,574.4803 Q457.0718,573.9407 456.5703,573.3472 Q456.0688,572.7537 456.0688,571.7508 Q456.0688,570.4622 456.894,569.7259 Q457.7192,568.9896 459.1602,568.9896 Q459.814,568.9896 460.4678,569.1387 Q461.1216,569.2879 461.7627,569.5799 L461.7627,571.408 Q461.1597,570.9827 460.5376,570.7606 Q459.9155,570.5384 459.3062,570.5384 Q458.627,570.5384 458.2651,570.8113 Q457.9033,571.0843 457.9033,571.5921 Q457.9033,571.9857 458.1667,572.2427 Q458.4302,572.4998 459.2681,572.8109 L460.0742,573.1155 Q461.2168,573.5345 461.7563,574.2264 Q462.2959,574.9183 462.2959,575.972 Q462.2959,577.4066 461.4485,578.1143 Q460.6011,578.8221 458.8872,578.8221 Q458.1826,578.8221 457.4749,578.6539 Q456.7671,578.4857 456.1069,578.1556 L456.1069,576.2195 Q456.856,576.7527 457.5574,577.013 Q458.2588,577.2733 458.9443,577.2733 Q459.6362,577.2733 460.0171,576.959 Q460.3979,576.6448 460.3979,576.0799 Q460.3979,575.6546 460.144,575.334 Q459.8901,575.0135 459.4077,574.8294 Z " fill="#2C3E50"/><text fill="#2C3E50" font-family="Helvetica Neue" font-size="13" lengthAdjust="spacing" textLength="55" x="478" y="579.1235">IRMetrics</text><line style="stroke:#181818;stroke-width:0.5;" x1="408.5" x2="572.5" y1="589.138" y2="589.138"/><text fill="#2C3E50" font-family="Helvetica Neue" font-size="13" lengthAdjust="spacing" textLength="118" x="413.5" y="605.878">totalInstructions : int</text><text fill="#2C3E50" font-family="Helvetica Neue" font-size="13" lengthAdjust="spacing" textLength="117" x="413.5" y="621.387">totalBasicBlock : int</text><text fill="#2C3E50" font-family="Helvetica Neue" font-size="13" lengthAdjust="spacing" textLength="107" x="413.5" y="636.896">totalFunctions : int</text><text fill="#2C3E50" font-family="Helvetica Neue" font-size="13" lengthAdjust="spacing" textLength="139" x="413.5" y="652.405">avgBasicBlock : double</text><text fill="#2C3E50" font-family="Helvetica Neue" font-size="13" lengthAdjust="spacing" textLength="119" x="413.5" y="667.914">maxBlockDepth : int</text><text fill="#2C3E50" font-family="Helvetica Neue" font-size="13" lengthAdjust="spacing" textLength="98" x="413.5" y="683.423">memoryOps : int</text><text fill="#2C3E50" font-family="Helvetica Neue" font-size="13" lengthAdjust="spacing" textLength="91" x="413.5" y="698.932">branchOps : int</text><text fill="#2C3E50" font-family="Helvetica Neue" font-size="13" lengthAdjust="spacing" textLength="71" x="413.5" y="714.441">callOps : int</text><text fill="#2C3E50" font-family="Helvetica Neue" font-size="13" lengthAdjust="spacing" textLength="108" x="413.5" y="729.95">arithmeticOps : int</text><text fill="#2C3E50" font-family="Helvetica Neue" font-size="13" lengthAdjust="spacing" textLength="154" x="413.5" y="745.459">executionTimeMs : double</text><line style="stroke:#181818;stroke-width:1.0;" x1="408.5" x2="572.5" y1="752.228" y2="752.228"/><ellipse cx="418.5" cy="765.4825" fill="#84BE84" rx="3" ry="3" style="stroke:#038048;stroke-width:1.0;"/><text fill="#2C3E50" font-family="Helvetica Neue" font-size="13" lengthAdjust="spacing" textLength="83" x="426.5" y="768.968">cost() : double</text><ellipse cx="418.5" cy="780.9915" fill="#84BE84" rx="3" ry="3" style="stroke:#038048;stroke-width:1.0;"/><text fill="#2C3E50" font-family="Helvetica Neue" font-size="13" lengthAdjust="spacing" textLength="121" x="426.5" y="784.477">toString() : std::string</text></g><!--class SequenceGenerator--><g id="elem_SequenceGenerator"><rect codeLine="71" fill="#F1F1F1" height="123.545" id="SequenceGenerator" rx="4" ry="4" style="stroke:#181818;stroke-width:0.5;" width="437" x="1079" y="868.248"/><ellipse cx="1236" cy="883.248" fill="#ADD1B2" rx="10" ry="10" style="stroke:#181818;stroke-width:1.0;"/><path d="M1237.8618,887.4751 Q1237.4175,887.7036 1236.9287,887.8178 Q1236.4399,887.9321 1235.9004,887.9321 Q1233.9834,887.9321 1232.9741,886.6689 Q1231.9648,885.4057 1231.9648,883.019 Q1231.9648,880.6259 1232.9741,879.3627 Q1233.9834,878.0996 1235.9004,878.0996 Q1236.4399,878.0996 1236.9351,878.2138 Q1237.4302,878.3281 1237.8618,878.5566 L1237.8618,880.6386 Q1237.3794,880.1943 1236.9255,879.988 Q1236.4717,879.7817 1235.9893,879.7817 Q1234.9609,879.7817 1234.4373,880.5974 Q1233.9136,881.413 1233.9136,883.019 Q1233.9136,884.6186 1234.4373,885.4343 Q1234.9609,886.25 1235.9893,886.25 Q1236.4717,886.25 1236.9255,886.0437 Q1237.3794,885.8374 1237.8618,885.393 Z " fill="#2C3E50"/><text fill="#2C3E50" font-family="Helvetica Neue" font-size="13" lengthAdjust="spacing" textLength="115" x="1255" y="888.2335">SequenceGenerator</text><line style="stroke:#181818;stroke-width:0.5;" x1="1080" x2="1515" y1="898.248" y2="898.248"/><line style="stroke:#181818;stroke-width:0.5;" x1="1080" x2="1515" y1="906.248" y2="906.248"/><ellipse cx="1090" cy="919.5025" fill="#84BE84" rx="3" ry="3" style="stroke:#038048;stroke-width:1.0;"/><text fill="#2C3E50" font-family="Helvetica Neue" font-size="13" lengthAdjust="spacing" textLength="258" x="1098" y="922.988">generateRandom(length : int) : OptSequence</text><ellipse cx="1090" cy="935.0115" fill="#84BE84" rx="3" ry="3" style="stroke:#038048;stroke-width:1.0;"/><text fill="#2C3E50" font-family="Helvetica Neue" font-size="13" lengthAdjust="spacing" textLength="165" x="1098" y="938.497">generateO2() : OptSequence</text><ellipse cx="1090" cy="950.5205" fill="#84BE84" rx="3" ry="3" style="stroke:#038048;stroke-width:1.0;"/><text fill="#2C3E50" font-family="Helvetica Neue" font-size="13" lengthAdjust="spacing" textLength="165" x="1098" y="954.006">generateO3() : OptSequence</text><ellipse cx="1090" cy="966.0295" fill="#84BE84" rx="3" ry="3" style="stroke:#038048;stroke-width:1.0;"/><text fill="#2C3E50" font-family="Helvetica Neue" font-size="13" lengthAdjust="spacing" textLength="412" x="1098" y="969.515">generateFromIR(metrics : const IRMetrics&amp;, length : int) : OptSequence</text><ellipse cx="1090" cy="981.5385" fill="#84BE84" rx="3" ry="3" style="stroke:#038048;stroke-width:1.0;"/><text fill="#2C3E50" font-family="Helvetica Neue" font-size="13" lengthAdjust="spacing" textLength="186" x="1098" y="985.024">generateEmpty() : OptSequence</text></g><!--class PhaseOrderingSolver--><g id="elem_PhaseOrderingSolver"><rect codeLine="79" fill="#F1F1F1" height="247.617" id="PhaseOrderingSolver" rx="4" ry="4" style="stroke:#181818;stroke-width:0.5;" width="522" x="409.5" y="49.978"/><ellipse cx="605.5" cy="64.978" fill="#ADD1B2" rx="10" ry="10" style="stroke:#181818;stroke-width:1.0;"/><path d="M607.3618,69.2051 Q606.9175,69.4336 606.4287,69.5478 Q605.9399,69.6621 605.4004,69.6621 Q603.4834,69.6621 602.4741,68.3989 Q601.4648,67.1357 601.4648,64.749 Q601.4648,62.3559 602.4741,61.0927 Q603.4834,59.8296 605.4004,59.8296 Q605.9399,59.8296 606.4351,59.9438 Q606.9302,60.0581 607.3618,60.2866 L607.3618,62.3686 Q606.8794,61.9243 606.4255,61.718 Q605.9717,61.5117 605.4893,61.5117 Q604.4609,61.5117 603.9373,62.3274 Q603.4136,63.143 603.4136,64.749 Q603.4136,66.3486 603.9373,67.1643 Q604.4609,67.98 605.4893,67.98 Q605.9717,67.98 606.4255,67.7737 Q606.8794,67.5674 607.3618,67.123 Z " fill="#2C3E50"/><text fill="#2C3E50" font-family="Helvetica Neue" font-size="13" lengthAdjust="spacing" textLength="122" x="624.5" y="69.9635">PhaseOrderingSolver</text><line style="stroke:#181818;stroke-width:0.5;" x1="410.5" x2="930.5" y1="79.978" y2="79.978"/><rect fill="none" height="6" style="stroke:#C82930;stroke-width:1.0;" width="6" x="417.5" y="90.2325"/><text fill="#2C3E50" font-family="Helvetica Neue" font-size="13" lengthAdjust="spacing" textLength="233" x="428.5" y="96.718">analyzer_ : std::unique_ptr&lt;IRAnalyzer&gt;</text><rect fill="none" height="6" style="stroke:#C82930;stroke-width:1.0;" width="6" x="417.5" y="105.7415"/><text fill="#2C3E50" font-family="Helvetica Neue" font-size="13" lengthAdjust="spacing" textLength="234" x="428.5" y="112.227">algorithm_ : std::unique_ptr&lt;IAlgorithm&gt;</text><rect fill="none" height="6" style="stroke:#C82930;stroke-width:1.0;" width="6" x="417.5" y="121.2505"/><text fill="#2C3E50" font-family="Helvetica Neue" font-size="13" lengthAdjust="spacing" textLength="224" x="428.5" y="127.736">llvm_ : std::unique_ptr&lt;LLVMFacade&gt;</text><rect fill="none" height="6" style="stroke:#C82930;stroke-width:1.0;" width="6" x="417.5" y="136.7595"/><text fill="#2C3E50" font-family="Helvetica Neue" font-size="13" lengthAdjust="spacing" textLength="127" x="428.5" y="143.245">config_ : SolverConfig</text><line style="stroke:#181818;stroke-width:1.0;" x1="410.5" x2="930.5" y1="150.014" y2="150.014"/><ellipse cx="420.5" cy="163.2685" fill="#84BE84" rx="3" ry="3" style="stroke:#038048;stroke-width:1.0;"/><text fill="#2C3E50" font-family="Helvetica Neue" font-size="13" lengthAdjust="spacing" textLength="128" x="428.5" y="166.754">PhaseOrderingSolver()</text><ellipse cx="420.5" cy="178.7775" fill="#84BE84" rx="3" ry="3" style="stroke:#038048;stroke-width:1.0;"/><text fill="#2C3E50" font-family="Helvetica Neue" font-size="13" lengthAdjust="spacing" textLength="342" x="428.5" y="182.263">setAlgorithm(algorithm : std::unique_ptr&lt;IAlgorithm&gt;) : void</text><ellipse cx="420.5" cy="194.2865" fill="#84BE84" rx="3" ry="3" style="stroke:#038048;stroke-width:1.0;"/><text fill="#2C3E50" font-family="Helvetica Neue" font-size="13" lengthAdjust="spacing" textLength="340" x="428.5" y="197.772">setAnalyzer(analyzer : std::unique_ptr&lt;IRAnalyzer&gt; ) : void</text><ellipse cx="420.5" cy="209.7955" fill="#84BE84" rx="3" ry="3" style="stroke:#038048;stroke-width:1.0;"/><text fill="#2C3E50" font-family="Helvetica Neue" font-size="13" lengthAdjust="spacing" textLength="285" x="428.5" y="213.281">solve(sourceFile : const std::string&amp;) : AlgoResult</text><ellipse cx="420.5" cy="225.3045" fill="#84BE84" rx="3" ry="3" style="stroke:#038048;stroke-width:1.0;"/><text fill="#2C3E50" font-family="Helvetica Neue" font-size="13" lengthAdjust="spacing" textLength="245" x="428.5" y="228.79">solveIR(ir : const std::string&amp;) : AlgoResult</text><ellipse cx="420.5" cy="240.8135" fill="#84BE84" rx="3" ry="3" style="stroke:#038048;stroke-width:1.0;"/><text fill="#2C3E50" font-family="Helvetica Neue" font-size="13" lengthAdjust="spacing" textLength="497" x="428.5" y="244.299">evaluate(sourceFile : const std::string&amp;, sequence : const OptSequence&amp;) : IRMetrics</text><ellipse cx="420.5" cy="256.3225" fill="#84BE84" rx="3" ry="3" style="stroke:#038048;stroke-width:1.0;"/><text fill="#2C3E50" font-family="Helvetica Neue" font-size="13" lengthAdjust="spacing" textLength="457" x="428.5" y="259.808">evaluateIR(ir : const std::string&amp;, sequence : const OptSequence&amp;) : IRMetrics</text><ellipse cx="420.5" cy="271.8315" fill="#84BE84" rx="3" ry="3" style="stroke:#038048;stroke-width:1.0;"/><text fill="#2C3E50" font-family="Helvetica Neue" font-size="13" lengthAdjust="spacing" textLength="170" x="428.5" y="275.317">config() : const SolverConfig&amp;</text><ellipse cx="420.5" cy="287.3405" fill="#84BE84" rx="3" ry="3" style="stroke:#038048;stroke-width:1.0;"/><text fill="#2C3E50" font-family="Helvetica Neue" font-size="13" lengthAdjust="spacing" textLength="162" x="428.5" y="290.826">llvm() : const LLVMFacade&amp;</text></g><!--class SolverConfig--><g id="elem_SolverConfig"><rect codeLine="96" fill="#F1F1F1" height="108.036" id="SolverConfig" rx="4" ry="4" style="stroke:#181818;stroke-width:0.5;" width="152" x="59.5" y="382.348"/><ellipse cx="95.55" cy="397.348" fill="#F1F1F1" rx="10" ry="10" style="stroke:#181818;stroke-width:1.0;"/><path d="M95.0373,397.6903 Q93.6218,397.1507 93.1203,396.5572 Q92.6188,395.9637 92.6188,394.9608 Q92.6188,393.6722 93.444,392.9359 Q94.2692,392.1996 95.7102,392.1996 Q96.364,392.1996 97.0178,392.3487 Q97.6716,392.4979 98.3127,392.7899 L98.3127,394.618 Q97.7097,394.1927 97.0876,393.9706 Q96.4655,393.7484 95.8562,393.7484 Q95.177,393.7484 94.8151,394.0213 Q94.4533,394.2943 94.4533,394.8021 Q94.4533,395.1957 94.7167,395.4527 Q94.9802,395.7098 95.8181,396.0209 L96.6242,396.3255 Q97.7668,396.7445 98.3063,397.4364 Q98.8459,398.1283 98.8459,399.182 Q98.8459,400.6166 97.9985,401.3243 Q97.1511,402.0321 95.4372,402.0321 Q94.7326,402.0321 94.0249,401.8639 Q93.3171,401.6957 92.6569,401.3656 L92.6569,399.4295 Q93.406,399.9627 94.1074,400.223 Q94.8088,400.4833 95.4943,400.4833 Q96.1862,400.4833 96.5671,400.169 Q96.9479,399.8548 96.9479,399.2899 Q96.9479,398.8646 96.694,398.544 Q96.4401,398.2235 95.9577,398.0394 Z " fill="#2C3E50"/><text fill="#2C3E50" font-family="Helvetica Neue" font-size="13" lengthAdjust="spacing" textLength="73" x="113.45" y="402.3335">SolverConfig</text><line style="stroke:#181818;stroke-width:0.5;" x1="60.5" x2="210.5" y1="412.348" y2="412.348"/><text fill="#2C3E50" font-family="Helvetica Neue" font-size="13" lengthAdjust="spacing" textLength="118" x="65.5" y="429.088">maxEvaluations : int</text><text fill="#2C3E50" font-family="Helvetica Neue" font-size="13" lengthAdjust="spacing" textLength="84" x="65.5" y="444.597">verbose : bool</text><text fill="#2C3E50" font-family="Helvetica Neue" font-size="13" lengthAdjust="spacing" textLength="135" x="65.5" y="460.106">measureRuntime : bool</text><text fill="#2C3E50" font-family="Helvetica Neue" font-size="13" lengthAdjust="spacing" textLength="140" x="65.5" y="475.615">llvmBinPath : std::string</text><line style="stroke:#181818;stroke-width:0.5;" x1="60.5" x2="210.5" y1="482.384" y2="482.384"/></g><g id="elem_GMN22"><path d="M966,151.138 L966,169.788 L931.67,173.788 L966,177.788 L966,196.422 A4,4 0 0 0 970,200.422 L1273,200.422 A4,4 0 0 0 1277,196.422 L1277,157.138 L1267,147.138 L970,147.138 A4,4 0 0 0 966,151.138 " fill="#FFF9E6" style="stroke:#F39C12;stroke-width:1.0;"/><path d="M1267,147.138 L1267,155.138 A2,2 0 0 0 1269,157.138 L1277,157.138 L1267,147.138 " fill="#FFF9E6" style="stroke:#F39C12;stroke-width:1.0;"/><text fill="#7D6608" font-family="Helvetica Neue" font-size="12" font-weight="bold" lengthAdjust="spacing" textLength="73" x="972" y="164.186">Orchestrator</text><text fill="#7D6608" font-family="Helvetica Neue" font-size="12" lengthAdjust="spacing" textLength="287" x="972" y="178.55">Finds the best optimization sequence for IR or Source</text><text fill="#7D6608" font-family="Helvetica Neue" font-size="12" lengthAdjust="spacing" textLength="290" x="972" y="192.866">Evaluates IRMetrics for specific optimization sequence</text></g><g id="elem_GMN25"><path d="M6,638.238 L6,712.154 A4,4 0 0 0 10,716.154 L261,716.154 A4,4 0 0 0 265,712.154 L265,644.238 L255,634.238 L139.5,634.238 L135.5,490.808 L131.5,634.238 L10,634.238 A4,4 0 0 0 6,638.238 " fill="#FFF9E6" style="stroke:#F39C12;stroke-width:1.0;"/><path d="M255,634.238 L255,642.238 A2,2 0 0 0 257,644.238 L265,644.238 L255,634.238 " fill="#FFF9E6" style="stroke:#F39C12;stroke-width:1.0;"/><text fill="#7D6608" font-family="Helvetica Neue" font-size="12" font-weight="bold" lengthAdjust="spacing" textLength="77" x="12" y="651.286">Configuration</text><text fill="#7D6608" font-family="Helvetica Neue" font-size="12" lengthAdjust="spacing" textLength="168" x="12" y="665.65">1. Maximum quantity of epochs</text><text fill="#7D6608" font-family="Helvetica Neue" font-size="12" lengthAdjust="spacing" textLength="77" x="12" y="679.966">2. Dump detail</text><text fill="#7D6608" font-family="Helvetica Neue" font-size="12" lengthAdjust="spacing" textLength="238" x="12" y="694.282">3. Execute the program for collecting metrics</text><text fill="#7D6608" font-family="Helvetica Neue" font-size="12" lengthAdjust="spacing" textLength="141" x="12" y="708.598">4. Path to LLVM binary file</text></g><g id="elem_GMN28"><path d="M1248.5,652.548 L1248.5,697.832 A4,4 0 0 0 1252.5,701.832 L1450.5,701.832 A4,4 0 0 0 1454.5,697.832 L1454.5,658.548 L1444.5,648.548 L1347.89,648.548 L1291.24,467.358 L1339.89,648.548 L1252.5,648.548 A4,4 0 0 0 1248.5,652.548 " fill="#FFF9E6" style="stroke:#F39C12;stroke-width:1.0;"/><path d="M1444.5,648.548 L1444.5,656.548 A2,2 0 0 0 1446.5,658.548 L1454.5,658.548 L1444.5,648.548 " fill="#FFF9E6" style="stroke:#F39C12;stroke-width:1.0;"/><text fill="#7D6608" font-family="Helvetica Neue" font-size="12" font-weight="bold" lengthAdjust="spacing" textLength="52" x="1254.5" y="665.596">Interface</text><text fill="#7D6608" font-family="Helvetica Neue" font-size="12" lengthAdjust="spacing" textLength="185" x="1254.5" y="679.96">All methods are clearly virtual (= 0).</text><text fill="#7D6608" font-family="Helvetica Neue" font-size="12" lengthAdjust="spacing" textLength="141" x="1254.5" y="694.276">Virtual destructor must be!</text></g><g id="elem_GMN31"><path d="M769.5,385.088 L769.5,487.636 A4,4 0 0 0 773.5,491.636 L858.2,491.636 L826.28,605.408 L866.2,491.636 L985.5,491.636 A4,4 0 0 0 989.5,487.636 L989.5,391.088 L979.5,381.088 L773.5,381.088 A4,4 0 0 0 769.5,385.088 " fill="#FFF9E6" style="stroke:#F39C12;stroke-width:1.0;"/><path d="M979.5,381.088 L979.5,389.088 A2,2 0 0 0 981.5,391.088 L989.5,391.088 L979.5,381.088 " fill="#FFF9E6" style="stroke:#F39C12;stroke-width:1.0;"/><text fill="#7D6608" font-family="Helvetica Neue" font-size="12" font-weight="bold" lengthAdjust="spacing" textLength="44" x="775.5" y="398.136">Context</text><text fill="#7D6608" font-family="Helvetica Neue" font-size="12" lengthAdjust="spacing" textLength="68" x="775.5" y="412.5">1. Current IR</text><text fill="#7D6608" font-family="Helvetica Neue" font-size="12" lengthAdjust="spacing" textLength="199" x="775.5" y="426.816">2. IRMetrics based on unoptimized IR</text><text fill="#7D6608" font-family="Helvetica Neue" font-size="12" lengthAdjust="spacing" textLength="106" x="775.5" y="441.132">3. LLVM commands</text><text fill="#7D6608" font-family="Helvetica Neue" font-size="12" lengthAdjust="spacing" textLength="171" x="775.5" y="455.448">4. IRAnalyzer used by Algorithm</text><text fill="#7D6608" font-family="Helvetica Neue" font-size="12" lengthAdjust="spacing" textLength="168" x="775.5" y="469.764">5. Maximum quantity of epochs</text><text fill="#7D6608" font-family="Helvetica Neue" font-size="12" lengthAdjust="spacing" textLength="77" x="775.5" y="484.08">6. Dump detail</text></g><g id="elem_GMN34"><path d="M1714,392.248 L1714,480.48 A4,4 0 0 0 1718,484.48 L1880.5,484.48 L1884.5,612.968 L1888.5,484.48 L2051,484.48 A4,4 0 0 0 2055,480.48 L2055,398.248 L2045,388.248 L1718,388.248 A4,4 0 0 0 1714,392.248 " fill="#FFF9E6" style="stroke:#F39C12;stroke-width:1.0;"/><path d="M2045,388.248 L2045,396.248 A2,2 0 0 0 2047,398.248 L2055,398.248 L2045,388.248 " fill="#FFF9E6" style="stroke:#F39C12;stroke-width:1.0;"/><text fill="#7D6608" font-family="Helvetica Neue" font-size="12" font-weight="bold" lengthAdjust="spacing" textLength="36" x="1720" y="405.296">Result</text><text fill="#7D6608" font-family="Helvetica Neue" font-size="12" lengthAdjust="spacing" textLength="320" x="1720" y="419.66">1. The best optimization sequence was finding by Algorithm</text><text fill="#7D6608" font-family="Helvetica Neue" font-size="12" lengthAdjust="spacing" textLength="214" x="1720" y="433.976">2. IRMetrics based on the bestSequence</text><text fill="#7D6608" font-family="Helvetica Neue" font-size="12" lengthAdjust="spacing" textLength="255" x="1720" y="448.292">3. Amount of evaluations required for Algorithm</text><text fill="#7D6608" font-family="Helvetica Neue" font-size="12" lengthAdjust="spacing" textLength="223" x="1720" y="462.608">4. Improvement ratio over the baseMetrics</text><text fill="#7D6608" font-family="Helvetica Neue" font-size="12" lengthAdjust="spacing" textLength="238" x="1720" y="476.924">5. Additional information during calculations</text></g><g id="elem_GMN37"><path d="M1551,900.218 L1551,959.818 A4,4 0 0 0 1555,963.818 L1860,963.818 A4,4 0 0 0 1864,959.818 L1864,906.218 L1854,896.218 L1700.39,896.218 L1637.79,721.688 L1692.39,896.218 L1555,896.218 A4,4 0 0 0 1551,900.218 " fill="#FFF9E6" style="stroke:#F39C12;stroke-width:1.0;"/><path d="M1854,896.218 L1854,904.218 A2,2 0 0 0 1856,906.218 L1864,906.218 L1854,896.218 " fill="#FFF9E6" style="stroke:#F39C12;stroke-width:1.0;"/><text fill="#7D6608" font-family="Helvetica Neue" font-size="12" font-weight="bold" lengthAdjust="spacing" textLength="106" x="1557" y="913.266">Random Algorithm</text><text fill="#7D6608" font-family="Helvetica Neue" font-size="12" lengthAdjust="spacing" textLength="286" x="1557" y="927.63">Realizes random algorithm of generating optimization</text><text fill="#7D6608" font-family="Helvetica Neue" font-size="12" lengthAdjust="spacing" textLength="292" x="1557" y="941.946">sequence on each epoch. Using in average for baseline</text><text fill="#7D6608" font-family="Helvetica Neue" font-size="12" lengthAdjust="spacing" textLength="60" x="1557" y="956.262">comparing.</text></g><g id="elem_GMN40"><path d="M715,900.218 L715,959.818 A4,4 0 0 0 719,963.818 L1040,963.818 A4,4 0 0 0 1044,959.818 L1044,906.218 L1034,896.218 L909.77,896.218 L1044.33,721.688 L901.77,896.218 L719,896.218 A4,4 0 0 0 715,900.218 " fill="#FFF9E6" style="stroke:#F39C12;stroke-width:1.0;"/><path d="M1034,896.218 L1034,904.218 A2,2 0 0 0 1036,906.218 L1044,906.218 L1034,896.218 " fill="#FFF9E6" style="stroke:#F39C12;stroke-width:1.0;"/><text fill="#7D6608" font-family="Helvetica Neue" font-size="12" font-weight="bold" lengthAdjust="spacing" textLength="94" x="721" y="913.266">Linear Algorithm</text><text fill="#7D6608" font-family="Helvetica Neue" font-size="12" lengthAdjust="spacing" textLength="274" x="721" y="927.63">Realizes linear algorithm of generating optimization</text><text fill="#7D6608" font-family="Helvetica Neue" font-size="12" lengthAdjust="spacing" textLength="308" x="721" y="941.946">sequence on each epoch. Using mutations for generating.</text><text fill="#7D6608" font-family="Helvetica Neue" font-size="12" lengthAdjust="spacing" textLength="218" x="721" y="956.262">Applying changes in improvement cases.</text></g><g id="elem_GMN43"><path d="M1169.5,1056.788 L1169.5,1087.756 A4,4 0 0 0 1173.5,1091.756 L1421.5,1091.756 A4,4 0 0 0 1425.5,1087.756 L1425.5,1062.788 L1415.5,1052.788 L1301.5,1052.788 L1297.5,992.128 L1293.5,1052.788 L1173.5,1052.788 A4,4 0 0 0 1169.5,1056.788 " fill="#FFF9E6" style="stroke:#F39C12;stroke-width:1.0;"/><path d="M1415.5,1052.788 L1415.5,1060.788 A2,2 0 0 0 1417.5,1062.788 L1425.5,1062.788 L1415.5,1052.788 " fill="#FFF9E6" style="stroke:#F39C12;stroke-width:1.0;"/><text fill="#7D6608" font-family="Helvetica Neue" font-size="12" font-weight="bold" lengthAdjust="spacing" textLength="36" x="1175.5" y="1069.836">Fabric</text><text fill="#7D6608" font-family="Helvetica Neue" font-size="12" lengthAdjust="spacing" textLength="235" x="1175.5" y="1084.2">Generates different optimization sequences.</text></g><g id="elem_GMN46"><path d="M100,151.138 L100,196.422 A4,4 0 0 0 104,200.422 L258.68,200.422 L431.22,374.308 L266.68,200.422 L371,200.422 A4,4 0 0 0 375,196.422 L375,157.138 L365,147.138 L104,147.138 A4,4 0 0 0 100,151.138 " fill="#FFF9E6" style="stroke:#F39C12;stroke-width:1.0;"/><path d="M365,147.138 L365,155.138 A2,2 0 0 0 367,157.138 L375,157.138 L365,147.138 " fill="#FFF9E6" style="stroke:#F39C12;stroke-width:1.0;"/><text fill="#7D6608" font-family="Helvetica Neue" font-size="12" font-weight="bold" lengthAdjust="spacing" textLength="46" x="106" y="164.186">Analysis</text><text fill="#7D6608" font-family="Helvetica Neue" font-size="12" lengthAdjust="spacing" textLength="254" x="106" y="178.55">Get LLVM IR and run analysis to collect metrics.</text><text fill="#7D6608" font-family="Helvetica Neue" font-size="12" lengthAdjust="spacing" textLength="251" x="106" y="192.866">Can calculate normalized cost of given metrics.</text></g><g id="elem_GMN49"><path d="M341,907.378 L341,952.662 A4,4 0 0 0 345,956.662 L636,956.662 A4,4 0 0 0 640,952.662 L640,913.378 L630,903.378 L494.5,903.378 L490.5,791.508 L486.5,903.378 L345,903.378 A4,4 0 0 0 341,907.378 " fill="#FFF9E6" style="stroke:#F39C12;stroke-width:1.0;"/><path d="M630,903.378 L630,911.378 A2,2 0 0 0 632,913.378 L640,913.378 L630,903.378 " fill="#FFF9E6" style="stroke:#F39C12;stroke-width:1.0;"/><text fill="#7D6608" font-family="Helvetica Neue" font-size="12" font-weight="bold" lengthAdjust="spacing" textLength="43" x="347" y="920.426">Metrics</text><text fill="#7D6608" font-family="Helvetica Neue" font-size="12" lengthAdjust="spacing" textLength="278" x="347" y="934.79">The meaningful characteristics of LLVM IR that used</text><text fill="#7D6608" font-family="Helvetica Neue" font-size="12" lengthAdjust="spacing" textLength="243" x="347" y="949.106">for searching the best optimization sequence.</text></g><!--reverse link IAlgorithm to RandomSearch--><g id="link_IAlgorithm_RandomSearch"><path codeLine="106" d="M1347.0246,477.1309 C1385.5846,501.1709 1425.01,526.518 1471.5,559.138 C1502.93,581.188 1537.03,606.998 1564.85,628.578 " fill="none" id="IAlgorithm-backto-RandomSearch" style="stroke:#7F8C8D;stroke-width:1.5;stroke-dasharray:7.0,7.0;"/><polygon fill="none" points="1331.75,467.608,1343.8503,482.2224,1350.1989,472.0393,1331.75,467.608" style="stroke:#7F8C8D;stroke-width:1.5;"/></g><!--reverse link IAlgorithm to HillClimbing--><g id="link_IAlgorithm_HillClimbing"><path codeLine="107" d="M1245.2379,481.0521 C1210.5179,521.7521 1159.87,581.138 1119.36,628.638 " fill="none" id="IAlgorithm-backto-HillClimbing" style="stroke:#7F8C8D;stroke-width:1.5;stroke-dasharray:7.0,7.0;"/><polygon fill="none" points="1256.92,467.358,1240.6732,477.1581,1249.8026,484.9462,1256.92,467.358" style="stroke:#7F8C8D;stroke-width:1.5;"/></g><!--reverse link RandomSearch to SequenceGenerator--><g id="link_RandomSearch_SequenceGenerator"><path codeLine="110" d="M1559.2841,725.372 C1506.7441,766.242 1433.91,822.898 1375.98,867.958 " fill="none" id="RandomSearch-backto-SequenceGenerator" style="stroke:#7F8C8D;stroke-width:1.5;stroke-dasharray:7.0,7.0;"/><polygon fill="#7F8C8D" points="1564.02,721.688,1554.4602,724.0567,1560.0734,724.758,1559.3722,730.3712,1564.02,721.688" style="stroke:#7F8C8D;stroke-width:1.5;"/><text fill="#2C3E50" font-family="Helvetica Neue" font-size="13" lengthAdjust="spacing" textLength="99" x="1431.89" y="834.988">generateRandom</text></g><!--reverse link HillClimbing to SequenceGenerator--><g id="link_HillClimbing_SequenceGenerator"><path codeLine="111" d="M1106.0992,727.0037 C1124.4592,761.1837 1149.59,802.738 1181.5,838.248 C1190.73,848.518 1201.23,858.488 1212.05,867.838 " fill="none" id="HillClimbing-backto-SequenceGenerator" style="stroke:#7F8C8D;stroke-width:1.5;stroke-dasharray:7.0,7.0;"/><polygon fill="#7F8C8D" points="1103.26,721.718,1103.9951,731.5394,1105.626,726.1228,1111.0427,727.7537,1103.26,721.718" style="stroke:#7F8C8D;stroke-width:1.5;"/><text fill="#2C3E50" font-family="Helvetica Neue" font-size="13" lengthAdjust="spacing" textLength="91" x="1182.5" y="834.988">generateFromIR</text></g><!--link PhaseOrderingSolver to IAlgorithm--><g id="link_PhaseOrderingSolver_IAlgorithm"><path codeLine="114" d="M931.97,290.508 C937.53,292.898 943.04,295.258 948.5,297.588 C1037.19,335.468 1134.2612,375.2897 1202.1012,402.8497 " fill="none" id="PhaseOrderingSolver-to-IAlgorithm" style="stroke:#7F8C8D;stroke-width:1.5;"/><polygon fill="#7F8C8D" points="1207.66,405.108,1200.8273,398.0147,1203.0277,403.2261,1197.8163,405.4265,1207.66,405.108" style="stroke:#7F8C8D;stroke-width:1.5;"/><text fill="#2C3E50" font-family="Helvetica Neue" font-size="13" lengthAdjust="spacing" textLength="50" x="1059.39" y="341.328">interface</text><text fill="#2C3E50" font-family="Helvetica Neue" font-size="13" lengthAdjust="spacing" textLength="20" x="1170.1618" y="394.9069">0..*</text></g><!--link PhaseOrderingSolver to IRAnalyzer--><g id="link_PhaseOrderingSolver_IRAnalyzer"><path codeLine="115" d="M585.51,297.828 C567.12,324.448 551.8591,346.5306 535.9991,369.5006 " fill="none" id="PhaseOrderingSolver-to-IRAnalyzer" style="stroke:#7F8C8D;stroke-width:1.5;"/><polygon fill="#7F8C8D" points="532.59,374.438,540.9953,369.3046,535.4309,370.3235,534.4121,364.7592,532.59,374.438" style="stroke:#7F8C8D;stroke-width:1.5;"/><text fill="#2C3E50" font-family="Helvetica Neue" font-size="13" lengthAdjust="spacing" textLength="20" x="516.501" y="363.7482">0..*</text></g><!--link PhaseOrderingSolver to SolverConfig--><g id="link_PhaseOrderingSolver_SolverConfig"><path codeLine="118" d="M409.3,291.248 C325.24,329.098 248.71,364.108 229.5,374.588 C223.7,377.758 222.9365,378.0903 217.0365,381.6003 " fill="none" id="PhaseOrderingSolver-to-SolverConfig" style="stroke:#7F8C8D;stroke-width:1.5;stroke-dasharray:7.0,7.0;"/><polygon fill="#7F8C8D" points="211.88,384.668,221.6598,383.5041,216.1771,382.1116,217.5696,376.6288,211.88,384.668" style="stroke:#7F8C8D;stroke-width:1.5;"/></g><!--link IAlgorithm to AlgoContext--><g id="link_IAlgorithm_AlgoContext"><path codeLine="119" d="M1154.88,467.648 C1085.22,487.478 999.22,517.528 929.5,559.138 C908.23,571.838 891.8723,584.533 873.5723,601.313 " fill="none" id="IAlgorithm-to-AlgoContext" style="stroke:#7F8C8D;stroke-width:1.5;stroke-dasharray:7.0,7.0;"/><polygon fill="#7F8C8D" points="869.15,605.368,878.4868,602.2337,872.8353,601.9888,873.0801,596.3373,869.15,605.368" style="stroke:#7F8C8D;stroke-width:1.5;"/></g><!--link IAlgorithm to AlgoResult--><g id="link_IAlgorithm_AlgoResult"><path codeLine="120" d="M1415.3,450.038 C1518.59,464.518 1662.52,495.118 1773.5,559.138 C1797.3,572.868 1815.2447,588.7568 1833.2747,608.5068 " fill="none" id="IAlgorithm-to-AlgoResult" style="stroke:#7F8C8D;stroke-width:1.5;stroke-dasharray:7.0,7.0;"/><polygon fill="#7F8C8D" points="1837.32,612.938,1834.2062,603.5943,1833.9489,609.2453,1828.2979,608.9881,1837.32,612.938" style="stroke:#7F8C8D;stroke-width:1.5;"/></g><!--link IRAnalyzer to IRMetrics--><g id="link_IRAnalyzer_IRMetrics"><path codeLine="121" d="M490.5,498.358 C490.5,516.858 490.5,531.828 490.5,552.678 " fill="none" id="IRAnalyzer-to-IRMetrics" style="stroke:#7F8C8D;stroke-width:1.5;stroke-dasharray:7.0,7.0;"/><polygon fill="#7F8C8D" points="490.5,558.678,494.5,549.678,490.5,553.678,486.5,549.678,490.5,558.678" style="stroke:#7F8C8D;stroke-width:1.5;"/></g><!--SRC=[hLXBSnCv4BxxLmWEO2_nX8NTFQIogN920gvA26K3rvH68zkgrKY3fF76iFptRJr6ex77DllWG6NKtUgltoq_OOBmkg0eoqx3dwSFPaLB-i3PScMogYxvO62OuHHzM65Dn_Uge8g99PeJuCE3mNCq7e_HL1Yg5fXGRJy70zPye-c4BwLYPbMYRmC4_rwWRpZNHc5YlYDLYo4nZ-WC4IcqGPRvIeBmetasWbFxFQEwvcRmVJ00gPfqcCATJCKRj2dEpe0HC3vpj1nWSoRe7OL3eYFZT1PEF1ldwpBIRcy_tzrWWWlgYLXWllbALI8y2KUUeSIFrslCQsmOq84D7E08QwfogIcSv5BoBIEyPS66d6epfrzgAeXblw_YLoIt9aJmZaPRrPyqBHBrhAoKN4D0XPbP1Y0LiiwvlvFB9Hma7hFuTWAgAERigxlU1vTmh3MQOL78Sawn8gjWmXZf0FcMYgLPFIH8GD17FvKRTlaz-oWm_hFSyA3UCSwlE2jpcw8DA0ZEUpdrdZWEAUN-Bu2y7zzHNYrgZXoyfZeyrZQ78b8YQs7k2QcLibxHmps9VO8gR210efSwwhEnrJPix0bPlK_9Q2VFNY2cBwbLFCGzTNI2yfxJKPFx_WOXLMdpYLv9RORbtg8yYOMxvywGnsr5HN9mfv46ywdmrAsoTBHBh1cvv9ByiKsvgSME25ulEm997K7AkDCtj6gIs9_JKghDVPLUaoiioAfxHZ3dtHFiEYOrZ7JFwICbjKNsaPNqJdTXn5WJwzfHb_W2B9kxm3hALj7xZ6mQpbiggC96gjYob_w4-aePyhHSUvfLAt3_QdY4uVKHXXibo-diOARyE9phiZAR7ONH0Mx6DIDkBlawgSrc1Zmqtgi50_c7ogZpjhWk6kvcwlMonvdOiDlfqyVP3gABs2B4WYqjhyTtvRwxyUyn8nQzfYPg7qQKXq5QVwqbAv8hcbwIJCO3Ja7RDrXCGorhHUWDutHl_qbQQY89wN2WP-t8XF5uLE5975-Hd6H9RpzihjwFw5zSwaFiijGBf95-5fXinYGiwSRIjiHKC2JoZsugldzXNIiwWw44xIQbMEsNJ7p0hknwDuWhloLGxZMjM1Mct_DskKXtYxD1iYgU_vLbdR6yGqmdlRtpauO_zDcWivQS0-DkKplRQcU3pjPmJCRt8wjoehKaB83lQntZyGLw-ZBBVdgQhi7EvTx-erAnXAo-Qr6NftCVsO9ML1I0aL7ThppBBhej8e5WQSdsqaSA5PGiAPRIfcg8ydjfcgr6m9z8sNS3aek-7kGovpo_k8VGKFi20CUUd-Q-izqmKMW4Zm-twI9PGSerMsUie0L4OZf3yF_SbRAJ3EbCTR81M4PTKS8MZFJVDG3t8Giv0C-bCRAqo7VwAa3sNxLoTqJCFsVe3Z-oiYxHbnf3aPYDlO1MagnyCR_Aq9kwh21S1ZDVEgypTEscE7NMmfwvLBXqY8dadCBY0LbO9XtXbmovGZFIbJc2DCLgWnRGn_PRqOQqiI5MNSG_uTmgMadmF5OKbbGe6xv1QwPCZJaQ_evUZZB7-ZaS5TIt5a1RrX2dd3xPnc1aPG6a-TLwqNwc_hjogwuTvus_sY3Q1R104BDQX132Ps04BpfV45cMKCJHKKc-rbOwtw2k8tuz6hFVkZ7RRrqoPC0u_vNQzl5mCl-98KyXwssuTs3sEw8fZyvs0wwObFRXuEn8Uhi2BgP0qkPMzthhgVPfY5nU8sdRXbC1-jAH13wR50Mpjq8ACB6mExmpfgZTZm6mm98wDFhzATdfvutNt5cBBlflvYQ3VNvwZdPLWPj2BxQgKzywmUXVW4Sn304NsimF200FYpp8BdqpQTuOVWsNPOMjFTb-6pfZ9zXm2nTWTSW6xZd-9nlAseG8MnFQUtobJggARrnGLbWiGJcOdFmC0B62T-W12tTcNsFc3SuX8w9nWGuA2hPOK5V5lOc-gopKK3BTWWhthPbEbFZLndPzo0Fx1FUBE33PVXWwPjCklGUki8WPITi7P-7UHSxrR4r5AxE_XtOMCy0NFYCyM-6m90bmjtlahx3zMGj6dZQsRk6A1hnPOUCwafDpuydLWGtKuQ6NuFiR]--></g></svg>